<svg width="764" height="157" viewBox="0 0 764 157" fill="none" xmlns="http://www.w3.org/2000/svg">
<path d="M163.857 21H246.357V46.8H242.157L237.357 30.15C237.057 28.85 236.707 27.95 236.307 27.45C236.007 26.85 235.357 26.5 234.357 26.4C233.357 26.3 231.657 26.25 229.257 26.25H214.107V110.4C214.107 113.8 214.257 115.85 214.557 116.55C214.857 117.15 215.807 117.55 217.407 117.75L225.657 118.8V123H184.557V118.8L192.807 117.75C194.407 117.55 195.357 117.15 195.657 116.55C195.957 115.85 196.107 113.8 196.107 110.4V26.25H180.957C178.657 26.25 176.957 26.3 175.857 26.4C174.857 26.5 174.207 26.85 173.907 27.45C173.607 27.95 173.257 28.85 172.857 30.15L168.057 46.8H163.857V21ZM251.64 51.15V46.95H279.54V59.25C285.64 50.05 292.89 45.45 301.29 45.45C304.39 45.45 307.39 46.45 310.29 48.45C313.19 50.35 315.59 53.95 317.49 59.25L304.14 66.45C302.74 62.35 301.09 59.6 299.19 58.2C297.39 56.7 295.44 55.95 293.34 55.95C291.14 55.95 288.99 56.65 286.89 58.05C284.79 59.45 282.64 62.05 280.44 65.85V110.4C280.44 113.8 280.59 115.85 280.89 116.55C281.19 117.15 282.14 117.55 283.74 117.75L294.99 118.8V123H251.64V118.8L259.89 117.75C261.49 117.55 262.44 117.15 262.74 116.55C263.04 115.85 263.19 113.8 263.19 110.4V59.55C263.19 56.15 263.04 54.15 262.74 53.55C262.44 52.85 261.49 52.4 259.89 52.2L251.64 51.15ZM396.694 119.25C395.094 120.75 393.144 122 390.844 123C388.644 124 385.944 124.5 382.744 124.5C378.644 124.5 375.194 123.6 372.394 121.8C369.694 120 367.894 117.45 366.994 114.15C363.694 117.75 360.044 120.4 356.044 122.1C352.144 123.7 348.144 124.5 344.044 124.5C337.144 124.5 331.994 122.6 328.594 118.8C325.194 114.9 323.494 110.05 323.494 104.25C323.494 98.35 325.644 93.6 329.944 90C334.244 86.3 341.844 84.45 352.744 84.45H366.394V72.3C366.394 64 365.294 58.35 363.094 55.35C360.994 52.25 358.044 50.7 354.244 50.7C351.744 50.7 349.444 51.35 347.344 52.65C345.244 53.85 343.744 56.15 342.844 59.55C342.044 62.85 342.194 67.65 343.294 73.95L326.794 71.55C325.994 66.95 326.494 62.7 328.294 58.8C330.194 54.8 333.344 51.6 337.744 49.2C342.144 46.7 347.744 45.45 354.544 45.45C362.244 45.45 368.194 46.7 372.394 49.2C376.594 51.7 379.494 55 381.094 59.1C382.794 63.2 383.644 67.6 383.644 72.3V106.95C383.644 112.05 384.094 115.25 384.994 116.55C385.894 117.85 386.894 118.5 387.994 118.5C389.794 118.5 391.794 117.45 393.994 115.35L396.694 119.25ZM350.644 116.55C353.244 116.55 355.794 115.9 358.294 114.6C360.894 113.2 363.594 110.65 366.394 106.95V89.7H355.144C350.244 89.7 346.694 90.85 344.494 93.15C342.294 95.45 341.194 99.05 341.194 103.95C341.194 107.95 341.994 111.05 343.594 113.25C345.194 115.45 347.544 116.55 350.644 116.55ZM438.107 50.7C433.307 50.7 429.707 53 427.307 57.6C425.007 62.1 423.857 69.7 423.857 80.4V89.4C423.857 100 425.207 107.65 427.907 112.35C430.607 116.95 435.007 119.25 441.107 119.25C445.607 119.25 449.257 118 452.057 115.5C454.957 112.9 456.607 108.55 457.007 102.45L466.607 105.15C464.807 112.15 461.507 117.15 456.707 120.15C452.007 123.05 446.457 124.5 440.057 124.5C428.557 124.5 419.907 121.05 414.107 114.15C408.307 107.15 405.407 97.9 405.407 86.4V83.4C405.407 71.9 408.207 62.7 413.807 55.8C419.407 48.9 427.507 45.45 438.107 45.45C445.107 45.45 450.807 46.85 455.207 49.65C459.707 52.35 462.857 55.95 464.657 60.45C466.557 64.85 467.057 69.6 466.157 74.7L449.657 77.1C450.757 68.7 450.307 62.2 448.307 57.6C446.307 53 442.907 50.7 438.107 50.7ZM475.297 16.2V12H504.097V84.75L530.497 59.55C533.997 56.25 535.847 54.25 536.047 53.55C536.347 52.85 535.647 52.4 533.947 52.2L525.697 51.15V46.95H556.447V51.15L548.197 52.2C547.297 52.3 546.547 52.5 545.947 52.8C545.347 53.1 544.497 53.75 543.397 54.75C542.297 55.65 540.547 57.25 538.147 59.55L523.747 73.35L545.047 110.4C546.447 112.7 547.497 114.35 548.197 115.35C548.897 116.25 549.547 116.85 550.147 117.15C550.847 117.35 551.697 117.55 552.697 117.75L560.947 118.8V123H532.297L511.447 85.05L504.097 92.1V110.4C504.097 113.8 504.247 115.85 504.547 116.55C504.847 117.15 505.797 117.55 507.397 117.75L515.647 118.8V123H475.297V118.8L483.547 117.75C485.147 117.55 486.097 117.15 486.397 116.55C486.697 115.85 486.847 113.8 486.847 110.4V24.6C486.847 21.2 486.697 19.2 486.397 18.6C486.097 17.9 485.147 17.45 483.547 17.25L475.297 16.2ZM584.63 34.05C581.53 34.05 579.03 33.1 577.13 31.2C575.23 29.2 574.28 26.65 574.28 23.55C574.28 20.45 575.23 17.95 577.13 16.05C579.03 14.15 581.53 13.2 584.63 13.2C587.63 13.2 590.13 14.15 592.13 16.05C594.13 17.95 595.13 20.45 595.13 23.55C595.13 26.65 594.13 29.2 592.13 31.2C590.13 33.1 587.63 34.05 584.63 34.05ZM564.53 51.15V46.95H593.33V110.4C593.33 113.8 593.48 115.85 593.78 116.55C594.08 117.15 595.03 117.55 596.63 117.75L604.88 118.8V123H564.53V118.8L572.78 117.75C574.38 117.55 575.33 117.15 575.63 116.55C575.93 115.85 576.08 113.8 576.08 110.4V59.55C576.08 56.15 575.93 54.15 575.63 53.55C575.33 52.85 574.38 52.4 572.78 52.2L564.53 51.15ZM654.023 118.8V123H610.673V118.8L618.923 117.75C620.523 117.55 621.473 117.15 621.773 116.55C622.073 115.85 622.223 113.8 622.223 110.4V59.55C622.223 56.15 622.073 54.15 621.773 53.55C621.473 52.85 620.523 52.4 618.923 52.2L610.673 51.15V46.95H622.223V38.85C622.223 34.05 623.023 29.5 624.623 25.2C626.323 20.8 629.123 17.25 633.023 14.55C637.023 11.85 642.373 10.5 649.073 10.5C655.173 10.5 660.173 11.55 664.073 13.65C668.073 15.75 670.923 18.55 672.623 22.05C674.423 25.55 674.973 29.35 674.273 33.45L657.773 35.85C658.773 28.35 658.473 23.15 656.873 20.25C655.373 17.25 652.773 15.75 649.073 15.75C647.073 15.75 645.323 16.3 643.823 17.4C642.423 18.5 641.323 20.5 640.523 23.4C639.823 26.2 639.473 30.35 639.473 35.85V46.95H661.973V52.2H639.473V110.4C639.473 113.8 639.623 115.85 639.923 116.55C640.223 117.15 641.173 117.55 642.773 117.75L654.023 118.8ZM707.165 130.5C704.865 136.8 702.315 141.85 699.515 145.65C696.815 149.45 693.465 152.2 689.465 153.9C685.465 155.6 680.465 156.45 674.465 156.45V139.95C680.565 139.95 685.465 139.5 689.165 138.6C692.965 137.8 695.865 136.45 697.865 134.55C699.965 132.75 701.515 130.4 702.515 127.5L704.015 123H696.215L674.915 59.55C674.215 57.25 673.615 55.65 673.115 54.75C672.715 53.75 672.215 53.1 671.615 52.8C671.115 52.5 670.315 52.3 669.215 52.2L660.965 51.15V46.95H701.465V51.15L693.215 52.2C692.015 52.3 691.265 52.7 690.965 53.4C690.765 54 691.215 56.05 692.315 59.55L708.665 109.05L725.615 58.95C726.715 55.75 727.165 53.9 726.965 53.4C726.865 52.8 726.065 52.4 724.565 52.2L716.315 51.15V46.95H744.965V51.15L736.715 52.2C735.215 52.4 734.215 52.8 733.715 53.4C733.215 54 732.415 55.85 731.315 58.95L707.165 130.5Z" fill="#131212"/>
<path d="M4.62065 103C12.12 96.5 34.7479 75.6178 34.7479 75.6178L59.798 100.721L117.266 47C117.266 47 117.756 106.244 117.266 115.783C116.775 125.322 112.336 127.054 104.004 127.331H14.6097C-2.37891 127.331 -2.87866 109.5 4.62065 103Z" fill="#F97316"/>
<path d="M111.736 32.5C101.411 42 56.6664 84 56.6664 84L30.6065 57.5L0.121338 87V17.5C1.30298 10.7959 3.6507 7.80625 13.3971 5L105.836 4C116.12 4.02972 122.062 23 111.736 32.5Z" fill="#F97316"/>
</svg>
