<svg width="871" height="170" viewBox="0 0 871 170" fill="none" xmlns="http://www.w3.org/2000/svg">
<mask id="path-1-outside-1_3_26" maskUnits="userSpaceOnUse" x="188" y="21" width="679" height="149" fill="black">
<rect fill="white" x="188" y="21" width="679" height="149"/>
<path d="M189.608 47.9254V28.9091H279.203V47.9254H245.805V138H223.006V47.9254H189.608ZM285.036 138V56.1818H307.035V70.4574H307.887C309.379 65.3793 311.882 61.544 315.398 58.9517C318.914 56.3239 322.962 55.0099 327.543 55.0099C328.679 55.0099 329.904 55.081 331.218 55.223C332.532 55.3651 333.686 55.5604 334.681 55.8089V75.9439C333.615 75.6243 332.142 75.3402 330.26 75.0916C328.377 74.843 326.655 74.7188 325.093 74.7188C321.755 74.7188 318.772 75.4467 316.144 76.9027C313.551 78.3232 311.492 80.3118 309.965 82.8686C308.473 85.4254 307.728 88.3729 307.728 91.7109V138H285.036ZM367.4 139.545C362.18 139.545 357.528 138.639 353.444 136.828C349.36 134.982 346.129 132.265 343.749 128.678C341.406 125.056 340.234 120.546 340.234 115.148C340.234 110.603 341.068 106.786 342.737 103.696C344.406 100.607 346.679 98.1207 349.556 96.2386C352.432 94.3565 355.699 92.9361 359.357 91.9773C363.05 91.0185 366.921 90.3438 370.969 89.9531C375.727 89.456 379.563 88.9943 382.475 88.5682C385.387 88.1065 387.499 87.4318 388.813 86.544C390.127 85.6562 390.784 84.3423 390.784 82.6023V82.2827C390.784 78.9091 389.719 76.299 387.588 74.4524C385.493 72.6058 382.51 71.6825 378.639 71.6825C374.556 71.6825 371.306 72.5881 368.892 74.3991C366.477 76.1747 364.879 78.4119 364.097 81.1108L343.11 79.4062C344.176 74.4347 346.271 70.1378 349.396 66.5156C352.521 62.858 356.551 60.0526 361.487 58.0994C366.459 56.1108 372.212 55.1165 378.746 55.1165C383.291 55.1165 387.642 55.6491 391.796 56.7145C395.987 57.7798 399.698 59.4311 402.929 61.6683C406.196 63.9055 408.771 66.782 410.653 70.2976C412.535 73.7777 413.476 77.9503 413.476 82.8153V138H391.956V126.654H391.317C390.003 129.211 388.245 131.466 386.044 133.419C383.842 135.337 381.196 136.846 378.107 137.947C375.017 139.012 371.448 139.545 367.4 139.545ZM373.899 123.884C377.237 123.884 380.184 123.227 382.741 121.913C385.298 120.564 387.304 118.753 388.76 116.48C390.216 114.207 390.944 111.633 390.944 108.756V100.074C390.234 100.536 389.257 100.962 388.014 101.352C386.807 101.707 385.44 102.045 383.913 102.364C382.386 102.648 380.859 102.915 379.332 103.163C377.805 103.376 376.42 103.572 375.177 103.749C372.514 104.14 370.188 104.761 368.199 105.614C366.21 106.466 364.666 107.62 363.565 109.076C362.464 110.496 361.914 112.272 361.914 114.403C361.914 117.492 363.032 119.854 365.269 121.487C367.542 123.085 370.419 123.884 373.899 123.884ZM468.048 139.598C459.667 139.598 452.459 137.822 446.422 134.271C440.42 130.685 435.804 125.713 432.572 119.357C429.376 113 427.778 105.685 427.778 97.4105C427.778 89.0298 429.394 81.679 432.626 75.358C435.893 69.0014 440.527 64.0476 446.528 60.4964C452.53 56.9098 459.667 55.1165 467.942 55.1165C475.079 55.1165 481.329 56.4126 486.692 59.005C492.054 61.5973 496.297 65.2372 499.422 69.9247C502.547 74.6122 504.27 80.1165 504.589 86.4375H483.176C482.572 82.3537 480.974 79.0689 478.382 76.5831C475.825 74.0618 472.469 72.8011 468.314 72.8011C464.799 72.8011 461.727 73.7599 459.099 75.6776C456.507 77.5597 454.483 80.3118 453.027 83.9339C451.571 87.5561 450.843 91.9418 450.843 97.0909C450.843 102.311 451.553 106.75 452.974 110.408C454.43 114.065 456.471 116.853 459.099 118.771C461.727 120.688 464.799 121.647 468.314 121.647C470.907 121.647 473.233 121.114 475.292 120.049C477.388 118.984 479.11 117.439 480.459 115.415C481.844 113.355 482.75 110.887 483.176 108.011H504.589C504.234 114.261 502.53 119.765 499.476 124.523C496.457 129.246 492.285 132.94 486.958 135.603C481.631 138.266 475.328 139.598 468.048 139.598ZM539.679 114.456L539.732 87.2365H543.035L569.242 56.1818H595.29L560.08 97.304H554.7L539.679 114.456ZM519.118 138V28.9091H541.81V138H519.118ZM570.254 138L546.178 102.364L561.305 86.331L596.835 138H570.254ZM606.423 138V56.1818H629.114V138H606.423ZM617.822 45.6349C614.448 45.6349 611.554 44.5163 609.139 42.2791C606.76 40.0064 605.57 37.2898 605.57 34.1293C605.57 31.0043 606.76 28.3232 609.139 26.0859C611.554 23.8132 614.448 22.6768 617.822 22.6768C621.195 22.6768 624.072 23.8132 626.451 26.0859C628.866 28.3232 630.073 31.0043 630.073 34.1293C630.073 37.2898 628.866 40.0064 626.451 42.2791C624.072 44.5163 621.195 45.6349 617.822 45.6349ZM691.29 56.1818V73.2273H640.793V56.1818H691.29ZM652.352 138V50.2692C652.352 44.3388 653.506 39.4204 655.814 35.5142C658.158 31.6079 661.354 28.6783 665.403 26.7251C669.451 24.772 674.05 23.7954 679.199 23.7954C682.679 23.7954 685.857 24.0618 688.733 24.5945C691.645 25.1271 693.812 25.6065 695.232 26.0327L691.184 43.0781C690.296 42.794 689.195 42.5277 687.881 42.2791C686.603 42.0305 685.289 41.9062 683.939 41.9062C680.601 41.9062 678.275 42.6875 676.961 44.25C675.648 45.777 674.991 47.9254 674.991 50.6953V138H652.352ZM719.162 168.682C716.286 168.682 713.587 168.451 711.066 167.989C708.58 167.563 706.52 167.013 704.887 166.338L710 149.399C712.664 150.216 715.061 150.66 717.191 150.731C719.358 150.802 721.222 150.305 722.784 149.239C724.382 148.174 725.679 146.363 726.673 143.806L728.005 140.344L698.654 56.1818H722.518L739.457 116.267H740.309L757.408 56.1818H781.431L749.631 146.842C748.104 151.246 746.027 155.081 743.399 158.348C740.806 161.651 737.522 164.19 733.544 165.965C729.567 167.776 724.773 168.682 719.162 168.682ZM827.694 139.598C819.278 139.598 812.033 137.893 805.961 134.484C799.924 131.04 795.272 126.175 792.005 119.889C788.738 113.568 787.104 106.093 787.104 97.4638C787.104 89.0476 788.738 81.6612 792.005 75.3047C795.272 68.9482 799.871 63.9943 805.801 60.4432C811.767 56.892 818.763 55.1165 826.788 55.1165C832.186 55.1165 837.211 55.9865 841.863 57.7266C846.55 59.4311 850.634 62.0057 854.114 65.4503C857.63 68.8949 860.364 73.2273 862.317 78.4474C864.271 83.6321 865.247 89.7045 865.247 96.6648V102.897H796.16V88.8345H843.887C843.887 85.5675 843.177 82.6733 841.756 80.152C840.336 77.6307 838.365 75.6598 835.844 74.2393C833.358 72.7834 830.464 72.0554 827.161 72.0554C823.717 72.0554 820.663 72.8544 817.999 74.4524C815.371 76.0149 813.312 78.1278 811.82 80.7912C810.329 83.419 809.565 86.3487 809.53 89.5803V102.95C809.53 106.999 810.276 110.496 811.767 113.444C813.294 116.391 815.442 118.664 818.212 120.262C820.982 121.86 824.267 122.659 828.067 122.659C830.588 122.659 832.896 122.304 834.991 121.594C837.087 120.884 838.88 119.818 840.371 118.398C841.863 116.977 842.999 115.237 843.781 113.178L864.768 114.562C863.702 119.605 861.518 124.009 858.216 127.773C854.949 131.501 850.723 134.413 845.538 136.509C840.389 138.568 834.441 139.598 827.694 139.598Z"/>
</mask>
<path d="M189.608 47.9254V28.9091H279.203V47.9254H245.805V138H223.006V47.9254H189.608ZM285.036 138V56.1818H307.035V70.4574H307.887C309.379 65.3793 311.882 61.544 315.398 58.9517C318.914 56.3239 322.962 55.0099 327.543 55.0099C328.679 55.0099 329.904 55.081 331.218 55.223C332.532 55.3651 333.686 55.5604 334.681 55.8089V75.9439C333.615 75.6243 332.142 75.3402 330.26 75.0916C328.377 74.843 326.655 74.7188 325.093 74.7188C321.755 74.7188 318.772 75.4467 316.144 76.9027C313.551 78.3232 311.492 80.3118 309.965 82.8686C308.473 85.4254 307.728 88.3729 307.728 91.7109V138H285.036ZM367.4 139.545C362.18 139.545 357.528 138.639 353.444 136.828C349.36 134.982 346.129 132.265 343.749 128.678C341.406 125.056 340.234 120.546 340.234 115.148C340.234 110.603 341.068 106.786 342.737 103.696C344.406 100.607 346.679 98.1207 349.556 96.2386C352.432 94.3565 355.699 92.9361 359.357 91.9773C363.05 91.0185 366.921 90.3438 370.969 89.9531C375.727 89.456 379.563 88.9943 382.475 88.5682C385.387 88.1065 387.499 87.4318 388.813 86.544C390.127 85.6562 390.784 84.3423 390.784 82.6023V82.2827C390.784 78.9091 389.719 76.299 387.588 74.4524C385.493 72.6058 382.51 71.6825 378.639 71.6825C374.556 71.6825 371.306 72.5881 368.892 74.3991C366.477 76.1747 364.879 78.4119 364.097 81.1108L343.11 79.4062C344.176 74.4347 346.271 70.1378 349.396 66.5156C352.521 62.858 356.551 60.0526 361.487 58.0994C366.459 56.1108 372.212 55.1165 378.746 55.1165C383.291 55.1165 387.642 55.6491 391.796 56.7145C395.987 57.7798 399.698 59.4311 402.929 61.6683C406.196 63.9055 408.771 66.782 410.653 70.2976C412.535 73.7777 413.476 77.9503 413.476 82.8153V138H391.956V126.654H391.317C390.003 129.211 388.245 131.466 386.044 133.419C383.842 135.337 381.196 136.846 378.107 137.947C375.017 139.012 371.448 139.545 367.4 139.545ZM373.899 123.884C377.237 123.884 380.184 123.227 382.741 121.913C385.298 120.564 387.304 118.753 388.76 116.48C390.216 114.207 390.944 111.633 390.944 108.756V100.074C390.234 100.536 389.257 100.962 388.014 101.352C386.807 101.707 385.44 102.045 383.913 102.364C382.386 102.648 380.859 102.915 379.332 103.163C377.805 103.376 376.42 103.572 375.177 103.749C372.514 104.14 370.188 104.761 368.199 105.614C366.21 106.466 364.666 107.62 363.565 109.076C362.464 110.496 361.914 112.272 361.914 114.403C361.914 117.492 363.032 119.854 365.269 121.487C367.542 123.085 370.419 123.884 373.899 123.884ZM468.048 139.598C459.667 139.598 452.459 137.822 446.422 134.271C440.42 130.685 435.804 125.713 432.572 119.357C429.376 113 427.778 105.685 427.778 97.4105C427.778 89.0298 429.394 81.679 432.626 75.358C435.893 69.0014 440.527 64.0476 446.528 60.4964C452.53 56.9098 459.667 55.1165 467.942 55.1165C475.079 55.1165 481.329 56.4126 486.692 59.005C492.054 61.5973 496.297 65.2372 499.422 69.9247C502.547 74.6122 504.27 80.1165 504.589 86.4375H483.176C482.572 82.3537 480.974 79.0689 478.382 76.5831C475.825 74.0618 472.469 72.8011 468.314 72.8011C464.799 72.8011 461.727 73.7599 459.099 75.6776C456.507 77.5597 454.483 80.3118 453.027 83.9339C451.571 87.5561 450.843 91.9418 450.843 97.0909C450.843 102.311 451.553 106.75 452.974 110.408C454.43 114.065 456.471 116.853 459.099 118.771C461.727 120.688 464.799 121.647 468.314 121.647C470.907 121.647 473.233 121.114 475.292 120.049C477.388 118.984 479.11 117.439 480.459 115.415C481.844 113.355 482.75 110.887 483.176 108.011H504.589C504.234 114.261 502.53 119.765 499.476 124.523C496.457 129.246 492.285 132.94 486.958 135.603C481.631 138.266 475.328 139.598 468.048 139.598ZM539.679 114.456L539.732 87.2365H543.035L569.242 56.1818H595.29L560.08 97.304H554.7L539.679 114.456ZM519.118 138V28.9091H541.81V138H519.118ZM570.254 138L546.178 102.364L561.305 86.331L596.835 138H570.254ZM606.423 138V56.1818H629.114V138H606.423ZM617.822 45.6349C614.448 45.6349 611.554 44.5163 609.139 42.2791C606.76 40.0064 605.57 37.2898 605.57 34.1293C605.57 31.0043 606.76 28.3232 609.139 26.0859C611.554 23.8132 614.448 22.6768 617.822 22.6768C621.195 22.6768 624.072 23.8132 626.451 26.0859C628.866 28.3232 630.073 31.0043 630.073 34.1293C630.073 37.2898 628.866 40.0064 626.451 42.2791C624.072 44.5163 621.195 45.6349 617.822 45.6349ZM691.29 56.1818V73.2273H640.793V56.1818H691.29ZM652.352 138V50.2692C652.352 44.3388 653.506 39.4204 655.814 35.5142C658.158 31.6079 661.354 28.6783 665.403 26.7251C669.451 24.772 674.05 23.7954 679.199 23.7954C682.679 23.7954 685.857 24.0618 688.733 24.5945C691.645 25.1271 693.812 25.6065 695.232 26.0327L691.184 43.0781C690.296 42.794 689.195 42.5277 687.881 42.2791C686.603 42.0305 685.289 41.9062 683.939 41.9062C680.601 41.9062 678.275 42.6875 676.961 44.25C675.648 45.777 674.991 47.9254 674.991 50.6953V138H652.352ZM719.162 168.682C716.286 168.682 713.587 168.451 711.066 167.989C708.58 167.563 706.52 167.013 704.887 166.338L710 149.399C712.664 150.216 715.061 150.66 717.191 150.731C719.358 150.802 721.222 150.305 722.784 149.239C724.382 148.174 725.679 146.363 726.673 143.806L728.005 140.344L698.654 56.1818H722.518L739.457 116.267H740.309L757.408 56.1818H781.431L749.631 146.842C748.104 151.246 746.027 155.081 743.399 158.348C740.806 161.651 737.522 164.19 733.544 165.965C729.567 167.776 724.773 168.682 719.162 168.682ZM827.694 139.598C819.278 139.598 812.033 137.893 805.961 134.484C799.924 131.04 795.272 126.175 792.005 119.889C788.738 113.568 787.104 106.093 787.104 97.4638C787.104 89.0476 788.738 81.6612 792.005 75.3047C795.272 68.9482 799.871 63.9943 805.801 60.4432C811.767 56.892 818.763 55.1165 826.788 55.1165C832.186 55.1165 837.211 55.9865 841.863 57.7266C846.55 59.4311 850.634 62.0057 854.114 65.4503C857.63 68.8949 860.364 73.2273 862.317 78.4474C864.271 83.6321 865.247 89.7045 865.247 96.6648V102.897H796.16V88.8345H843.887C843.887 85.5675 843.177 82.6733 841.756 80.152C840.336 77.6307 838.365 75.6598 835.844 74.2393C833.358 72.7834 830.464 72.0554 827.161 72.0554C823.717 72.0554 820.663 72.8544 817.999 74.4524C815.371 76.0149 813.312 78.1278 811.82 80.7912C810.329 83.419 809.565 86.3487 809.53 89.5803V102.95C809.53 106.999 810.276 110.496 811.767 113.444C813.294 116.391 815.442 118.664 818.212 120.262C820.982 121.86 824.267 122.659 828.067 122.659C830.588 122.659 832.896 122.304 834.991 121.594C837.087 120.884 838.88 119.818 840.371 118.398C841.863 116.977 842.999 115.237 843.781 113.178L864.768 114.562C863.702 119.605 861.518 124.009 858.216 127.773C854.949 131.501 850.723 134.413 845.538 136.509C840.389 138.568 834.441 139.598 827.694 139.598Z" fill="#131212"/>
<path d="M189.608 47.9254H188.608V48.9254H189.608V47.9254ZM189.608 28.9091V27.9091H188.608V28.9091H189.608ZM279.203 28.9091H280.203V27.9091H279.203V28.9091ZM279.203 47.9254V48.9254H280.203V47.9254H279.203ZM245.805 47.9254V46.9254H244.805V47.9254H245.805ZM245.805 138V139H246.805V138H245.805ZM223.006 138H222.006V139H223.006V138ZM223.006 47.9254H224.006V46.9254H223.006V47.9254ZM189.608 47.9254H190.608V28.9091H189.608H188.608V47.9254H189.608ZM189.608 28.9091V29.9091H279.203V28.9091V27.9091H189.608V28.9091ZM279.203 28.9091H278.203V47.9254H279.203H280.203V28.9091H279.203ZM279.203 47.9254V46.9254H245.805V47.9254V48.9254H279.203V47.9254ZM245.805 47.9254H244.805V138H245.805H246.805V47.9254H245.805ZM245.805 138V137H223.006V138V139H245.805V138ZM223.006 138H224.006V47.9254H223.006H222.006V138H223.006ZM223.006 47.9254V46.9254H189.608V47.9254V48.9254H223.006V47.9254ZM285.036 138H284.036V139H285.036V138ZM285.036 56.1818V55.1818H284.036V56.1818H285.036ZM307.035 56.1818H308.035V55.1818H307.035V56.1818ZM307.035 70.4574H306.035V71.4574H307.035V70.4574ZM307.887 70.4574V71.4574H308.636L308.847 70.7392L307.887 70.4574ZM315.398 58.9517L315.992 59.7566L315.997 59.7527L315.398 58.9517ZM331.218 55.223L331.326 54.2288L331.326 54.2288L331.218 55.223ZM334.681 55.8089H335.681V55.0282L334.923 54.8388L334.681 55.8089ZM334.681 75.9439L334.393 76.9017L335.681 77.2879V75.9439H334.681ZM316.144 76.9027L316.624 77.7797L316.628 77.7774L316.144 76.9027ZM309.965 82.8686L309.106 82.3558L309.101 82.3647L309.965 82.8686ZM307.728 138V139H308.728V138H307.728ZM285.036 138H286.036V56.1818H285.036H284.036V138H285.036ZM285.036 56.1818V57.1818H307.035V56.1818V55.1818H285.036V56.1818ZM307.035 56.1818H306.035V70.4574H307.035H308.035V56.1818H307.035ZM307.035 70.4574V71.4574H307.887V70.4574V69.4574H307.035V70.4574ZM307.887 70.4574L308.847 70.7392C310.29 65.8251 312.687 62.1936 315.992 59.7566L315.398 58.9517L314.805 58.1469C311.078 60.8945 308.468 64.9334 306.928 70.1756L307.887 70.4574ZM315.398 58.9517L315.997 59.7527C319.332 57.26 323.168 56.0099 327.543 56.0099V55.0099V54.0099C322.756 54.0099 318.496 55.3878 314.799 58.1507L315.398 58.9517ZM327.543 55.0099V56.0099C328.638 56.0099 329.827 56.0784 331.111 56.2172L331.218 55.223L331.326 54.2288C329.982 54.0835 328.72 54.0099 327.543 54.0099V55.0099ZM331.218 55.223L331.111 56.2172C332.392 56.3557 333.499 56.5443 334.438 56.7791L334.681 55.8089L334.923 54.8388C333.874 54.5765 332.673 54.3744 331.326 54.2288L331.218 55.223ZM334.681 55.8089H333.681V75.9439H334.681H335.681V55.8089H334.681ZM334.681 75.9439L334.968 74.9861C333.828 74.6441 332.294 74.3516 330.391 74.1002L330.26 75.0916L330.129 76.083C331.989 76.3287 333.403 76.6045 334.393 76.9017L334.681 75.9439ZM330.26 75.0916L330.391 74.1002C328.474 73.8471 326.707 73.7188 325.093 73.7188V74.7188V75.7188C326.603 75.7188 328.281 75.839 330.129 76.083L330.26 75.0916ZM325.093 74.7188V73.7188C321.604 73.7188 318.451 74.481 315.659 76.028L316.144 76.9027L316.628 77.7774C319.092 76.4125 321.905 75.7188 325.093 75.7188V74.7188ZM316.144 76.9027L315.663 76.0257C312.914 77.5324 310.724 79.6473 309.106 82.3559L309.965 82.8686L310.823 83.3813C312.26 80.9762 314.189 79.1139 316.624 77.7797L316.144 76.9027ZM309.965 82.8686L309.101 82.3647C307.509 85.0933 306.728 88.2189 306.728 91.7109H307.728H308.728C308.728 88.5268 309.437 85.7576 310.829 83.3725L309.965 82.8686ZM307.728 91.7109H306.728V138H307.728H308.728V91.7109H307.728ZM307.728 138V137H285.036V138V139H307.728V138ZM353.444 136.828L353.032 137.739L353.039 137.742L353.444 136.828ZM343.749 128.678L342.91 129.222L342.916 129.231L343.749 128.678ZM342.737 103.696L341.858 103.221L341.858 103.221L342.737 103.696ZM349.556 96.2386L349.008 95.4018L349.008 95.4018L349.556 96.2386ZM359.357 91.9773L359.105 91.0094L359.103 91.01L359.357 91.9773ZM370.969 89.9531L371.065 90.9485L371.073 90.9477L370.969 89.9531ZM382.475 88.5682L382.619 89.5577L382.631 89.5558L382.475 88.5682ZM388.813 86.544L388.254 85.7154L388.254 85.7154L388.813 86.544ZM387.588 74.4524L386.927 75.2026L386.933 75.2081L387.588 74.4524ZM368.892 74.3991L369.484 75.2048L369.492 75.1991L368.892 74.3991ZM364.097 81.1108L364.017 82.1075L364.831 82.1737L365.058 81.3889L364.097 81.1108ZM343.11 79.4062L342.132 79.1967L341.894 80.3107L343.029 80.403L343.11 79.4062ZM349.396 66.5156L350.153 67.1689L350.156 67.1652L349.396 66.5156ZM361.487 58.0994L361.855 59.0293L361.859 59.0279L361.487 58.0994ZM391.796 56.7145L391.548 57.6832L391.55 57.6837L391.796 56.7145ZM402.929 61.6683L402.36 62.4905L402.364 62.4934L402.929 61.6683ZM410.653 70.2976L409.771 70.7696L409.773 70.7733L410.653 70.2976ZM413.476 138V139H414.476V138H413.476ZM391.956 138H390.956V139H391.956V138ZM391.956 126.654H392.956V125.654H391.956V126.654ZM391.317 126.654V125.654H390.707L390.428 126.197L391.317 126.654ZM386.044 133.419L386.7 134.173L386.707 134.167L386.044 133.419ZM378.107 137.947L378.433 138.892L378.442 138.889L378.107 137.947ZM382.741 121.913L383.198 122.803L383.208 122.798L382.741 121.913ZM388.76 116.48L387.918 115.941L387.918 115.941L388.76 116.48ZM390.944 100.074H391.944V98.2312L390.399 99.2354L390.944 100.074ZM388.014 101.352L388.297 102.312L388.305 102.309L388.314 102.306L388.014 101.352ZM383.913 102.364L384.096 103.347L384.107 103.345L384.118 103.343L383.913 102.364ZM379.332 103.163L379.47 104.154L379.481 104.152L379.493 104.15L379.332 103.163ZM375.177 103.749L375.036 102.759L375.032 102.76L375.177 103.749ZM368.199 105.614L368.593 106.533L368.593 106.533L368.199 105.614ZM363.565 109.076L364.355 109.689L364.362 109.679L363.565 109.076ZM365.269 121.487L364.68 122.295L364.687 122.3L364.694 122.305L365.269 121.487ZM367.4 139.545V138.545C362.296 138.545 357.786 137.66 353.849 135.914L353.444 136.828L353.039 137.742C357.27 139.619 362.064 140.545 367.4 140.545V139.545ZM353.444 136.828L353.856 135.917C349.936 134.144 346.854 131.549 344.583 128.125L343.749 128.678L342.916 129.231C345.404 132.981 348.784 135.819 353.032 137.739L353.444 136.828ZM343.749 128.678L344.589 128.135C342.373 124.711 341.234 120.402 341.234 115.148H340.234H339.234C339.234 120.691 340.438 125.401 342.91 129.222L343.749 128.678ZM340.234 115.148H341.234C341.234 110.721 342.047 107.078 343.617 104.171L342.737 103.696L341.858 103.221C340.09 106.493 339.234 110.484 339.234 115.148H340.234ZM342.737 103.696L343.617 104.171C345.209 101.225 347.369 98.8645 350.103 97.0754L349.556 96.2386L349.008 95.4018C345.989 97.377 343.604 99.9883 341.858 103.221L342.737 103.696ZM349.556 96.2386L350.103 97.0754C352.881 95.258 356.047 93.8788 359.61 92.9446L359.357 91.9773L359.103 91.01C355.351 91.9934 351.983 93.4551 349.008 95.4018L349.556 96.2386ZM359.357 91.9773L359.608 92.9452C363.247 92.0004 367.066 91.3344 371.065 90.9485L370.969 89.9531L370.873 88.9577C366.776 89.3531 362.853 90.0365 359.105 91.0094L359.357 91.9773ZM370.969 89.9531L371.073 90.9477C375.838 90.4499 379.688 89.9866 382.619 89.5576L382.475 88.5682L382.33 87.5787C379.437 88.002 375.617 88.462 370.865 88.9585L370.969 89.9531ZM382.475 88.5682L382.631 89.5558C385.584 89.0877 387.874 88.3856 389.373 87.3726L388.813 86.544L388.254 85.7154C387.125 86.4781 385.189 87.1254 382.318 87.5805L382.475 88.5682ZM388.813 86.544L389.373 87.3726C390.992 86.2785 391.784 84.6364 391.784 82.6023H390.784H389.784C389.784 84.0482 389.262 85.034 388.254 85.7154L388.813 86.544ZM390.784 82.6023H391.784V82.2827H390.784H389.784V82.6023H390.784ZM390.784 82.2827H391.784C391.784 78.6816 390.636 75.7707 388.243 73.6967L387.588 74.4524L386.933 75.2081C388.802 76.8273 389.784 79.1366 389.784 82.2827H390.784ZM387.588 74.4524L388.249 73.7022C385.912 71.6418 382.66 70.6825 378.639 70.6825V71.6825V72.6825C382.361 72.6825 385.074 73.5698 386.927 75.2026L387.588 74.4524ZM378.639 71.6825V70.6825C374.415 70.6825 370.931 71.6193 368.292 73.5991L368.892 74.3991L369.492 75.1991C371.681 73.5568 374.696 72.6825 378.639 72.6825V71.6825ZM368.892 74.3991L368.299 73.5935C365.72 75.4903 363.984 77.9076 363.137 80.8327L364.097 81.1108L365.058 81.3889C365.774 78.9162 367.234 76.8592 369.484 75.2048L368.892 74.3991ZM364.097 81.1108L364.178 80.1141L343.191 78.4095L343.11 79.4062L343.029 80.403L364.017 82.1075L364.097 81.1108ZM343.11 79.4062L344.088 79.6158C345.121 74.7976 347.144 70.656 350.153 67.1689L349.396 66.5156L348.639 65.8624C345.397 69.6196 343.231 74.0717 342.132 79.1967L343.11 79.4062ZM349.396 66.5156L350.156 67.1652C353.164 63.644 357.055 60.9287 361.855 59.0293L361.487 58.0994L361.119 57.1696C356.048 59.1764 351.877 62.0719 348.635 65.8661L349.396 66.5156ZM361.487 58.0994L361.859 59.0279C366.689 57.0957 372.312 56.1165 378.746 56.1165V55.1165V54.1165C372.112 54.1165 366.229 55.1259 361.116 57.1709L361.487 58.0994ZM378.746 55.1165V56.1165C383.213 56.1165 387.479 56.6398 391.548 57.6831L391.796 56.7145L392.045 55.7458C387.804 54.6585 383.37 54.1165 378.746 54.1165V55.1165ZM391.796 56.7145L391.55 57.6837C395.636 58.7226 399.236 60.3276 402.36 62.4905L402.929 61.6683L403.498 60.8461C400.16 58.5346 396.337 56.8371 392.043 55.7453L391.796 56.7145ZM402.929 61.6683L402.364 62.4934C405.498 64.6393 407.964 67.3943 409.771 70.7696L410.653 70.2976L411.534 69.8256C409.577 66.1696 406.895 63.1717 403.494 60.8432L402.929 61.6683ZM410.653 70.2976L409.773 70.7733C411.56 74.0774 412.476 78.0787 412.476 82.8153H413.476H414.476C414.476 77.8219 413.51 73.478 411.532 69.8219L410.653 70.2976ZM413.476 82.8153H412.476V138H413.476H414.476V82.8153H413.476ZM413.476 138V137H391.956V138V139H413.476V138ZM391.956 138H392.956V126.654H391.956H390.956V138H391.956ZM391.956 126.654V125.654H391.317V126.654V127.654H391.956V126.654ZM391.317 126.654L390.428 126.197C389.172 128.641 387.491 130.798 385.38 132.671L386.044 133.419L386.707 134.167C388.999 132.134 390.834 129.781 392.206 127.111L391.317 126.654ZM386.044 133.419L385.387 132.665C383.29 134.491 380.757 135.941 377.771 137.005L378.107 137.947L378.442 138.889C381.635 137.751 384.393 136.182 386.7 134.173L386.044 133.419ZM378.107 137.947L377.781 137.001C374.818 138.023 371.363 138.545 367.4 138.545V139.545V140.545C371.534 140.545 375.217 140.001 378.433 138.892L378.107 137.947ZM373.899 123.884V124.884C377.37 124.884 380.479 124.2 383.198 122.803L382.741 121.913L382.284 121.024C379.89 122.254 377.103 122.884 373.899 122.884V123.884ZM382.741 121.913L383.208 122.798C385.906 121.374 388.046 119.448 389.602 117.02L388.76 116.48L387.918 115.941C386.562 118.058 384.689 119.754 382.274 121.029L382.741 121.913ZM388.76 116.48L389.602 117.02C391.168 114.575 391.944 111.811 391.944 108.756H390.944H389.944C389.944 111.455 389.264 113.84 387.918 115.941L388.76 116.48ZM390.944 108.756H391.944V100.074H390.944H389.944V108.756H390.944ZM390.944 100.074L390.399 99.2354C389.794 99.6286 388.912 100.022 387.715 100.398L388.014 101.352L388.314 102.306C389.603 101.901 390.673 101.442 391.489 100.912L390.944 100.074ZM388.014 101.352L387.732 100.393C386.556 100.739 385.215 101.07 383.708 101.386L383.913 102.364L384.118 103.343C385.665 103.019 387.058 102.676 388.297 102.312L388.014 101.352ZM383.913 102.364L383.73 101.381C382.21 101.664 380.691 101.929 379.171 102.176L379.332 103.163L379.493 104.15C381.027 103.901 382.561 103.633 384.096 103.347L383.913 102.364ZM379.332 103.163L379.194 102.173C377.666 102.386 376.28 102.582 375.036 102.759L375.177 103.749L375.318 104.739C376.56 104.562 377.944 104.367 379.47 104.154L379.332 103.163ZM375.177 103.749L375.032 102.76C372.303 103.16 369.89 103.801 367.805 104.694L368.199 105.614L368.593 106.533C370.485 105.722 372.725 105.12 375.322 104.739L375.177 103.749ZM368.199 105.614L367.805 104.694C365.686 105.602 363.991 106.855 362.767 108.473L363.565 109.076L364.362 109.679C365.341 108.385 366.734 107.329 368.593 106.533L368.199 105.614ZM363.565 109.076L362.774 108.463C361.514 110.09 360.914 112.093 360.914 114.403H361.914H362.914C362.914 112.451 363.414 110.903 364.355 109.689L363.565 109.076ZM361.914 114.403H360.914C360.914 117.769 362.152 120.449 364.68 122.295L365.269 121.487L365.859 120.68C363.912 119.258 362.914 117.215 362.914 114.403H361.914ZM365.269 121.487L364.694 122.305C367.174 124.049 370.265 124.884 373.899 124.884V123.884V122.884C370.572 122.884 367.911 122.122 365.845 120.669L365.269 121.487ZM446.422 134.271L445.909 135.13L445.915 135.133L446.422 134.271ZM432.572 119.357L431.679 119.806L431.681 119.81L432.572 119.357ZM432.626 75.358L431.736 74.9008L431.735 74.9028L432.626 75.358ZM446.528 60.4964L447.037 61.3571L447.041 61.3548L446.528 60.4964ZM486.692 59.005L487.127 58.1047L487.127 58.1047L486.692 59.005ZM504.589 86.4375V87.4375H505.641L505.588 86.387L504.589 86.4375ZM483.176 86.4375L482.187 86.5837L482.313 87.4375H483.176V86.4375ZM478.382 76.5831L477.68 77.2952L477.69 77.3049L478.382 76.5831ZM459.099 75.6776L459.687 76.4868L459.689 76.4853L459.099 75.6776ZM452.974 110.408L452.041 110.77L452.044 110.778L452.974 110.408ZM459.099 118.771L459.689 117.963L459.689 117.963L459.099 118.771ZM475.292 120.049L474.839 119.158L474.833 119.161L475.292 120.049ZM480.459 115.415L479.629 114.857L479.627 114.86L480.459 115.415ZM483.176 108.011V107.011H482.313L482.187 107.864L483.176 108.011ZM504.589 108.011L505.588 108.067L505.648 107.011H504.589V108.011ZM499.476 124.523L498.634 123.983L498.633 123.985L499.476 124.523ZM486.958 135.603L486.511 134.709L486.511 134.709L486.958 135.603ZM468.048 139.598V138.598C459.811 138.598 452.784 136.854 446.929 133.409L446.422 134.271L445.915 135.133C452.133 138.791 459.524 140.598 468.048 140.598V139.598ZM446.422 134.271L446.935 133.413C441.098 129.925 436.612 125.095 433.464 118.903L432.572 119.357L431.681 119.81C434.996 126.331 439.742 131.444 445.909 135.13L446.422 134.271ZM432.572 119.357L433.466 118.907C430.35 112.711 428.778 105.554 428.778 97.4105H427.778H426.778C426.778 105.815 428.402 113.289 431.679 119.806L432.572 119.357ZM427.778 97.4105H428.778C428.778 89.1596 430.368 81.9699 433.516 75.8132L432.626 75.358L431.735 74.9028C428.42 81.388 426.778 88.9 426.778 97.4105H427.778ZM432.626 75.358L433.515 75.8151C436.698 69.6218 441.202 64.8097 447.037 61.3571L446.528 60.4964L446.019 59.6358C439.851 63.2854 435.087 68.3811 431.736 74.9008L432.626 75.358ZM446.528 60.4964L447.041 61.3548C452.861 57.8766 459.815 56.1165 467.942 56.1165V55.1165V54.1165C459.52 54.1165 452.198 55.943 446.015 59.6381L446.528 60.4964ZM467.942 55.1165V56.1165C474.958 56.1165 481.054 57.3903 486.256 59.9053L486.692 59.005L487.127 58.1047C481.605 55.435 475.201 54.1165 467.942 54.1165V55.1165ZM486.692 59.005L486.256 59.9053C491.467 62.4245 495.57 65.9491 498.59 70.4794L499.422 69.9247L500.254 69.37C497.025 64.5254 492.64 60.7701 487.127 58.1047L486.692 59.005ZM499.422 69.9247L498.59 70.4794C501.603 74.9991 503.279 80.3242 503.591 86.488L504.589 86.4375L505.588 86.387C505.26 79.9087 503.491 74.2254 500.254 69.37L499.422 69.9247ZM504.589 86.4375V85.4375H483.176V86.4375V87.4375H504.589V86.4375ZM483.176 86.4375L484.165 86.2913C483.534 82.0223 481.85 78.5231 479.074 75.8613L478.382 76.5831L477.69 77.3049C480.099 79.6147 481.61 82.6851 482.187 86.5837L483.176 86.4375ZM478.382 76.5831L479.084 75.8711C476.311 73.1361 472.687 71.8011 468.314 71.8011V72.8011V73.8011C472.251 73.8011 475.34 74.9874 477.68 77.2951L478.382 76.5831ZM468.314 72.8011V71.8011C464.605 71.8011 461.323 72.817 458.51 74.8698L459.099 75.6776L459.689 76.4853C462.131 74.7029 464.993 73.8011 468.314 73.8011V72.8011ZM459.099 75.6776L458.512 74.8683C455.737 76.8829 453.61 79.8026 452.099 83.561L453.027 83.9339L453.955 84.3069C455.356 80.821 457.277 78.2364 459.687 76.4868L459.099 75.6776ZM453.027 83.9339L452.099 83.561C450.583 87.3329 449.843 91.8526 449.843 97.0909H450.843H451.843C451.843 92.0309 452.559 87.7793 453.955 84.3069L453.027 83.9339ZM450.843 97.0909H449.843C449.843 102.396 450.564 106.965 452.041 110.77L452.974 110.408L453.906 110.046C452.542 106.535 451.843 102.226 451.843 97.0909H450.843ZM452.974 110.408L452.044 110.778C453.555 114.573 455.7 117.528 458.51 119.578L459.099 118.771L459.689 117.963C457.242 116.178 455.304 113.557 453.903 110.038L452.974 110.408ZM459.099 118.771L458.51 119.578C461.323 121.631 464.605 122.647 468.314 122.647V121.647V120.647C464.993 120.647 462.131 119.745 459.689 117.963L459.099 118.771ZM468.314 121.647V122.647C471.048 122.647 473.534 122.084 475.752 120.937L475.292 120.049L474.833 119.161C472.931 120.144 470.766 120.647 468.314 120.647V121.647ZM475.292 120.049L475.746 120.94C477.999 119.794 479.85 118.131 481.291 115.969L480.459 115.415L479.627 114.86C478.37 116.747 476.776 118.173 474.839 119.158L475.292 120.049ZM480.459 115.415L481.289 115.973C482.77 113.77 483.721 111.156 484.165 108.157L483.176 108.011L482.187 107.864C481.779 110.618 480.918 112.94 479.629 114.857L480.459 115.415ZM483.176 108.011V109.011H504.589V108.011V107.011H483.176V108.011ZM504.589 108.011L503.591 107.954C503.245 114.051 501.585 119.385 498.634 123.983L499.476 124.523L500.317 125.064C503.474 120.145 505.224 114.47 505.588 108.067L504.589 108.011ZM499.476 124.523L498.633 123.985C495.718 128.546 491.686 132.121 486.511 134.709L486.958 135.603L487.405 136.497C492.883 133.759 497.196 129.947 500.318 125.062L499.476 124.523ZM486.958 135.603L486.511 134.709C481.35 137.289 475.207 138.598 468.048 138.598V139.598V140.598C475.449 140.598 481.912 139.244 487.405 136.497L486.958 135.603ZM539.679 114.456L538.679 114.454L538.674 117.122L540.431 115.115L539.679 114.456ZM539.732 87.2365V86.2365H538.734L538.732 87.2345L539.732 87.2365ZM543.035 87.2365V88.2365H543.499L543.799 87.8814L543.035 87.2365ZM569.242 56.1818V55.1818H568.778L568.478 55.5369L569.242 56.1818ZM595.29 56.1818L596.049 56.8322L597.462 55.1818H595.29V56.1818ZM560.08 97.304V98.304H560.541L560.84 97.9544L560.08 97.304ZM554.7 97.304V96.304H554.247L553.948 96.6451L554.7 97.304ZM519.118 138H518.118V139H519.118V138ZM519.118 28.9091V27.9091H518.118V28.9091H519.118ZM541.81 28.9091H542.81V27.9091H541.81V28.9091ZM541.81 138V139H542.81V138H541.81ZM570.254 138L569.426 138.56L569.723 139H570.254V138ZM546.178 102.364L545.45 101.678L544.901 102.261L545.349 102.924L546.178 102.364ZM561.305 86.331L562.129 85.7644L561.428 84.7441L560.578 85.6447L561.305 86.331ZM596.835 138V139H598.736L597.659 137.433L596.835 138ZM539.679 114.456L540.679 114.458L540.732 87.2385L539.732 87.2365L538.732 87.2345L538.679 114.454L539.679 114.456ZM539.732 87.2365V88.2365H543.035V87.2365V86.2365H539.732V87.2365ZM543.035 87.2365L543.799 87.8814L570.006 56.8268L569.242 56.1818L568.478 55.5369L542.271 86.5916L543.035 87.2365ZM569.242 56.1818V57.1818H595.29V56.1818V55.1818H569.242V56.1818ZM595.29 56.1818L594.53 55.5314L559.321 96.6536L560.08 97.304L560.84 97.9544L596.049 56.8322L595.29 56.1818ZM560.08 97.304V96.304H554.7V97.304V98.304H560.08V97.304ZM554.7 97.304L553.948 96.6451L538.927 113.797L539.679 114.456L540.431 115.115L555.453 97.9628L554.7 97.304ZM519.118 138H520.118V28.9091H519.118H518.118V138H519.118ZM519.118 28.9091V29.9091H541.81V28.9091V27.9091H519.118V28.9091ZM541.81 28.9091H540.81V138H541.81H542.81V28.9091H541.81ZM541.81 138V137H519.118V138V139H541.81V138ZM570.254 138L571.083 137.44L547.006 101.805L546.178 102.364L545.349 102.924L569.426 138.56L570.254 138ZM546.178 102.364L546.905 103.051L562.033 87.0172L561.305 86.331L560.578 85.6447L545.45 101.678L546.178 102.364ZM561.305 86.331L560.481 86.8976L596.011 138.567L596.835 138L597.659 137.433L562.129 85.7644L561.305 86.331ZM596.835 138V137H570.254V138V139H596.835V138ZM606.423 138H605.423V139H606.423V138ZM606.423 56.1818V55.1818H605.423V56.1818H606.423ZM629.114 56.1818H630.114V55.1818H629.114V56.1818ZM629.114 138V139H630.114V138H629.114ZM609.139 42.2791L608.448 43.0022L608.454 43.0075L608.46 43.0127L609.139 42.2791ZM609.139 26.0859L609.824 26.8145L609.825 26.8141L609.139 26.0859ZM626.451 26.0859L625.76 26.809L625.766 26.8143L625.771 26.8195L626.451 26.0859ZM626.451 42.2791L627.136 43.0076L627.136 43.0073L626.451 42.2791ZM606.423 138H607.423V56.1818H606.423H605.423V138H606.423ZM606.423 56.1818V57.1818H629.114V56.1818V55.1818H606.423V56.1818ZM629.114 56.1818H628.114V138H629.114H630.114V56.1818H629.114ZM629.114 138V137H606.423V138V139H629.114V138ZM617.822 45.6349V44.6349C614.693 44.6349 612.044 43.6068 609.819 41.5456L609.139 42.2791L608.46 43.0127C611.064 45.4258 614.203 46.6349 617.822 46.6349V45.6349ZM609.139 42.2791L609.83 41.556C607.639 39.4633 606.57 37.0043 606.57 34.1293H605.57H604.57C604.57 37.5753 605.881 40.5495 608.448 43.0022L609.139 42.2791ZM605.57 34.1293H606.57C606.57 31.2938 607.636 28.8723 609.824 26.8145L609.139 26.0859L608.454 25.3574C605.884 27.774 604.57 30.7147 604.57 34.1293H605.57ZM609.139 26.0859L609.825 26.8141C612.05 24.7193 614.698 23.6768 617.822 23.6768V22.6768V21.6768C614.198 21.6768 611.058 22.9071 608.454 25.3577L609.139 26.0859ZM617.822 22.6768V23.6768C620.945 23.6768 623.572 24.719 625.76 26.809L626.451 26.0859L627.142 25.3628C624.571 22.9074 621.445 21.6768 617.822 21.6768V22.6768ZM626.451 26.0859L625.771 26.8195C627.994 28.8788 629.073 31.299 629.073 34.1293H630.073H631.073C631.073 30.7095 629.737 27.7675 627.131 25.3524L626.451 26.0859ZM630.073 34.1293H629.073C629.073 36.9991 627.991 39.4567 625.766 41.5509L626.451 42.2791L627.136 43.0073C629.741 40.5561 631.073 37.5804 631.073 34.1293H630.073ZM626.451 42.2791L625.766 41.5506C623.579 43.6072 620.95 44.6349 617.822 44.6349V45.6349V46.6349C621.441 46.6349 624.565 45.4255 627.136 43.0076L626.451 42.2791ZM691.29 56.1818H692.29V55.1818H691.29V56.1818ZM691.29 73.2273V74.2273H692.29V73.2273H691.29ZM640.793 73.2273H639.793V74.2273H640.793V73.2273ZM640.793 56.1818V55.1818H639.793V56.1818H640.793ZM652.352 138H651.352V139H652.352V138ZM655.814 35.5142L654.957 34.9997L654.954 35.0055L655.814 35.5142ZM665.403 26.7251L664.968 25.8245L664.968 25.8245L665.403 26.7251ZM688.733 24.5945L688.551 25.5777L688.554 25.5781L688.733 24.5945ZM695.232 26.0327L696.205 26.2637L696.423 25.3459L695.519 25.0748L695.232 26.0327ZM691.184 43.0781L690.879 44.0305L691.907 44.3596L692.157 43.3092L691.184 43.0781ZM687.881 42.2791L687.69 43.2607L687.695 43.2617L687.881 42.2791ZM676.961 44.25L677.72 44.9023L677.727 44.8936L676.961 44.25ZM674.991 138V139H675.991V138H674.991ZM691.29 56.1818H690.29V73.2273H691.29H692.29V56.1818H691.29ZM691.29 73.2273V72.2273H640.793V73.2273V74.2273H691.29V73.2273ZM640.793 73.2273H641.793V56.1818H640.793H639.793V73.2273H640.793ZM640.793 56.1818V57.1818H691.29V56.1818V55.1818H640.793V56.1818ZM652.352 138H653.352V50.2692H652.352H651.352V138H652.352ZM652.352 50.2692H653.352C653.352 44.4641 654.482 39.7347 656.675 36.0229L655.814 35.5142L654.954 35.0055C652.53 39.1062 651.352 44.2134 651.352 50.2692H652.352ZM655.814 35.5142L656.672 36.0287C658.917 32.2873 661.967 29.493 665.837 27.6258L665.403 26.7251L664.968 25.8245C660.742 27.8635 657.4 30.9286 654.957 34.9997L655.814 35.5142ZM665.403 26.7251L665.837 27.6258C669.731 25.747 674.178 24.7954 679.199 24.7954V23.7954V22.7954C673.921 22.7954 669.17 23.7971 664.968 25.8245L665.403 26.7251ZM679.199 23.7954V24.7954C682.629 24.7954 685.745 25.058 688.551 25.5777L688.733 24.5945L688.916 23.6112C685.969 23.0655 682.729 22.7954 679.199 22.7954V23.7954ZM688.733 24.5945L688.554 25.5781C691.457 26.1093 693.579 26.5808 694.945 26.9905L695.232 26.0327L695.519 25.0748C694.044 24.6322 691.833 24.1449 688.913 23.6108L688.733 24.5945ZM695.232 26.0327L694.259 25.8016L690.211 42.8471L691.184 43.0781L692.157 43.3092L696.205 26.2637L695.232 26.0327ZM691.184 43.0781L691.489 42.1257C690.549 41.8251 689.406 41.5498 688.067 41.2965L687.881 42.2791L687.695 43.2617C688.985 43.5056 690.043 43.763 690.879 44.0305L691.184 43.0781ZM687.881 42.2791L688.072 41.2975C686.729 41.0363 685.351 40.9062 683.939 40.9062V41.9062V42.9062C685.227 42.9062 686.477 43.0248 687.69 43.2607L687.881 42.2791ZM683.939 41.9062V40.9062C680.49 40.9062 677.793 41.7075 676.196 43.6064L676.961 44.25L677.727 44.8936C678.758 43.6675 680.713 42.9062 683.939 42.9062V41.9062ZM676.961 44.25L676.203 43.5978C674.683 45.3643 673.991 47.7758 673.991 50.6953H674.991H675.991C675.991 48.0751 676.612 46.1897 677.719 44.9022L676.961 44.25ZM674.991 50.6953H673.991V138H674.991H675.991V50.6953H674.991ZM674.991 138V137H652.352V138V139H674.991V138ZM711.066 167.989L711.246 167.006L711.235 167.004L711.066 167.989ZM704.887 166.338L703.929 166.049L703.668 166.916L704.505 167.262L704.887 166.338ZM710 149.399L710.294 148.443L709.333 148.149L709.043 149.11L710 149.399ZM717.191 150.731L717.158 151.73L717.159 151.73L717.191 150.731ZM722.784 149.239L722.23 148.407L722.221 148.413L722.784 149.239ZM726.673 143.806L727.605 144.169L727.606 144.165L726.673 143.806ZM728.005 140.344L728.938 140.703L729.07 140.361L728.949 140.014L728.005 140.344ZM698.654 56.1818V55.1818H697.247L697.71 56.5111L698.654 56.1818ZM722.518 56.1818L723.481 55.9105L723.275 55.1818H722.518V56.1818ZM739.457 116.267L738.495 116.538L738.7 117.267H739.457V116.267ZM740.309 116.267V117.267H741.064L741.271 116.541L740.309 116.267ZM757.408 56.1818V55.1818H756.653L756.446 55.9081L757.408 56.1818ZM781.431 56.1818L782.375 56.5128L782.842 55.1818H781.431V56.1818ZM749.631 146.842L748.687 146.511L748.686 146.515L749.631 146.842ZM743.399 158.348L742.62 157.721L742.612 157.731L743.399 158.348ZM733.544 165.965L733.137 165.052L733.13 165.055L733.544 165.965ZM719.162 168.682V167.682C716.339 167.682 713.701 167.455 711.246 167.006L711.066 167.989L710.886 168.973C713.473 169.447 716.233 169.682 719.162 169.682V168.682ZM711.066 167.989L711.235 167.004C708.794 166.585 706.811 166.051 705.268 165.414L704.887 166.338L704.505 167.262C706.229 167.974 708.366 168.541 710.897 168.975L711.066 167.989ZM704.887 166.338L705.844 166.627L710.958 149.688L710 149.399L709.043 149.11L703.929 166.049L704.887 166.338ZM710 149.399L709.707 150.355C712.431 151.19 714.917 151.656 717.158 151.73L717.191 150.731L717.225 149.731C715.204 149.664 712.897 149.241 710.294 148.443L710 149.399ZM717.191 150.731L717.159 151.73C719.505 151.807 721.585 151.267 723.348 150.066L722.784 149.239L722.221 148.413C720.859 149.342 719.211 149.796 717.224 149.731L717.191 150.731ZM722.784 149.239L723.339 150.071C725.167 148.853 726.567 146.838 727.605 144.169L726.673 143.806L725.741 143.444C724.79 145.888 723.598 147.495 722.23 148.407L722.784 149.239ZM726.673 143.806L727.606 144.165L728.938 140.703L728.005 140.344L727.071 139.985L725.74 143.447L726.673 143.806ZM728.005 140.344L728.949 140.014L699.599 55.8525L698.654 56.1818L697.71 56.5111L727.06 140.673L728.005 140.344ZM698.654 56.1818V57.1818H722.518V56.1818V55.1818H698.654V56.1818ZM722.518 56.1818L721.556 56.4532L738.495 116.538L739.457 116.267L740.42 115.996L723.481 55.9105L722.518 56.1818ZM739.457 116.267V117.267H740.309V116.267V115.267H739.457V116.267ZM740.309 116.267L741.271 116.541L758.37 56.4555L757.408 56.1818L756.446 55.9081L739.347 115.993L740.309 116.267ZM757.408 56.1818V57.1818H781.431V56.1818V55.1818H757.408V56.1818ZM781.431 56.1818L780.488 55.8508L748.687 146.511L749.631 146.842L750.575 147.173L782.375 56.5128L781.431 56.1818ZM749.631 146.842L748.686 146.515C747.193 150.822 745.168 154.553 742.62 157.721L743.399 158.348L744.178 158.975C746.885 155.609 749.015 151.67 750.576 147.17L749.631 146.842ZM743.399 158.348L742.612 157.731C740.124 160.9 736.971 163.34 733.137 165.052L733.544 165.965L733.952 166.878C738.072 165.039 741.489 162.401 744.185 158.965L743.399 158.348ZM733.544 165.965L733.13 165.055C729.314 166.793 724.669 167.682 719.162 167.682V168.682V169.682C724.877 169.682 729.82 168.76 733.959 166.875L733.544 165.965ZM805.961 134.484L805.465 135.353L805.471 135.356L805.961 134.484ZM792.005 119.889L791.117 120.348L791.118 120.35L792.005 119.889ZM792.005 75.3047L791.116 74.8476L791.116 74.8476L792.005 75.3047ZM805.801 60.4432L805.29 59.5839L805.287 59.5852L805.801 60.4432ZM841.863 57.7266L841.513 58.6632L841.521 58.6664L841.863 57.7266ZM854.114 65.4503L853.411 66.161L853.414 66.1646L854.114 65.4503ZM862.317 78.4474L861.381 78.7979L861.382 78.8L862.317 78.4474ZM865.247 102.897V103.897H866.247V102.897H865.247ZM796.16 102.897H795.16V103.897H796.16V102.897ZM796.16 88.8345V87.8345H795.16V88.8345H796.16ZM843.887 88.8345V89.8345H844.887V88.8345H843.887ZM841.756 80.152L840.885 80.6428L840.885 80.6428L841.756 80.152ZM835.844 74.2393L835.338 75.1022L835.346 75.1065L835.353 75.1106L835.844 74.2393ZM817.999 74.4524L818.51 75.312L818.514 75.3099L817.999 74.4524ZM811.82 80.7912L812.69 81.2848L812.693 81.2798L811.82 80.7912ZM809.53 89.5803L808.53 89.5693V89.5803H809.53ZM811.767 113.444L810.875 113.895L810.879 113.904L811.767 113.444ZM834.991 121.594L834.67 120.647L834.67 120.647L834.991 121.594ZM840.371 118.398L839.682 117.674L839.682 117.674L840.371 118.398ZM843.781 113.178L843.846 112.18L843.108 112.131L842.846 112.823L843.781 113.178ZM864.768 114.562L865.746 114.769L865.985 113.641L864.834 113.565L864.768 114.562ZM858.216 127.773L857.464 127.113L857.464 127.114L858.216 127.773ZM845.538 136.509L845.91 137.437L845.913 137.436L845.538 136.509ZM827.694 139.598V138.598C819.414 138.598 812.345 136.922 806.45 133.612L805.961 134.484L805.471 135.356C811.722 138.865 819.142 140.598 827.694 140.598V139.598ZM805.961 134.484L806.457 133.616C800.59 130.268 796.072 125.546 792.892 119.428L792.005 119.889L791.118 120.35C794.472 126.803 799.258 131.811 805.465 135.353L805.961 134.484ZM792.005 119.889L792.893 119.43C789.714 113.278 788.104 105.967 788.104 97.4638H787.104H786.104C786.104 106.219 787.762 113.858 791.117 120.348L792.005 119.889ZM787.104 97.4638H788.104C788.104 89.1784 789.712 81.9538 792.894 75.7618L792.005 75.3047L791.116 74.8476C787.764 81.3686 786.104 88.9167 786.104 97.4638H787.104ZM792.005 75.3047L792.894 75.7618C796.079 69.5654 800.55 64.753 806.315 61.3011L805.801 60.4432L805.287 59.5852C799.191 63.2357 794.465 68.3309 791.116 74.8476L792.005 75.3047ZM805.801 60.4432L806.313 61.3025C812.101 57.857 818.914 56.1165 826.788 56.1165V55.1165V54.1165C818.611 54.1165 811.433 55.9271 805.29 59.5839L805.801 60.4432ZM826.788 55.1165V56.1165C832.077 56.1165 836.982 56.9685 841.513 58.6632L841.863 57.7266L842.213 56.7899C837.44 55.0045 832.295 54.1165 826.788 54.1165V55.1165ZM841.863 57.7266L841.521 58.6664C846.076 60.3225 850.035 62.8199 853.411 66.161L854.114 65.4503L854.818 64.7396C851.233 61.1914 847.025 58.5397 842.205 56.7868L841.863 57.7266ZM854.114 65.4503L853.414 66.1646C856.812 69.4939 859.472 73.6966 861.381 78.7979L862.317 78.4474L863.254 78.097C861.256 72.7579 858.447 68.2959 854.814 64.736L854.114 65.4503ZM862.317 78.4474L861.382 78.8C863.283 83.8472 864.247 89.7953 864.247 96.6648H865.247H866.247C866.247 89.6137 865.258 83.417 863.253 78.0949L862.317 78.4474ZM865.247 96.6648H864.247V102.897H865.247H866.247V96.6648H865.247ZM865.247 102.897V101.897H796.16V102.897V103.897H865.247V102.897ZM796.16 102.897H797.16V88.8345H796.16H795.16V102.897H796.16ZM796.16 88.8345V89.8345H843.887V88.8345V87.8345H796.16V88.8345ZM843.887 88.8345H844.887C844.887 85.4181 844.143 82.3508 842.628 79.6611L841.756 80.152L840.885 80.6428C842.211 82.9958 842.887 85.7169 842.887 88.8345H843.887ZM841.756 80.152L842.628 79.6611C841.118 76.9807 839.015 74.8782 836.335 73.3681L835.844 74.2393L835.353 75.1106C837.715 76.4414 839.554 78.2807 840.885 80.6428L841.756 80.152ZM835.844 74.2393L836.349 73.3765C833.689 71.8182 830.615 71.0554 827.161 71.0554V72.0554V73.0554C830.313 73.0554 833.027 73.7485 835.338 75.1022L835.844 74.2393ZM827.161 72.0554V71.0554C823.556 71.0554 820.32 71.8937 817.485 73.5949L817.999 74.4524L818.514 75.3099C821.005 73.8151 823.878 73.0554 827.161 73.0554V72.0554ZM817.999 74.4524L817.488 73.5929C814.71 75.245 812.525 77.4857 810.948 80.3026L811.82 80.7912L812.693 81.2798C814.098 78.7699 816.033 76.7848 818.51 75.3119L817.999 74.4524ZM811.82 80.7912L810.951 80.2976C809.37 83.0829 808.567 86.1806 808.53 89.5693L809.53 89.5803L810.53 89.5912C810.564 86.5169 811.288 83.7552 812.69 81.2848L811.82 80.7912ZM809.53 89.5803H808.53V102.95H809.53H810.53V89.5803H809.53ZM809.53 102.95H808.53C808.53 107.121 809.298 110.78 810.875 113.895L811.767 113.444L812.659 112.992C811.253 110.213 810.53 106.877 810.53 102.95H809.53ZM811.767 113.444L810.879 113.904C812.491 117.014 814.771 119.431 817.713 121.128L818.212 120.262L818.712 119.396C816.114 117.897 814.098 115.768 812.655 112.984L811.767 113.444ZM818.212 120.262L817.713 121.128C820.661 122.829 824.125 123.659 828.067 123.659V122.659V121.659C824.409 121.659 821.304 120.891 818.712 119.396L818.212 120.262ZM828.067 122.659V123.659C830.682 123.659 833.101 123.291 835.313 122.541L834.991 121.594L834.67 120.647C832.692 121.317 830.494 121.659 828.067 121.659V122.659ZM834.991 121.594L835.313 122.541C837.535 121.787 839.457 120.65 841.061 119.122L840.371 118.398L839.682 117.674C838.303 118.987 836.638 119.98 834.67 120.647L834.991 121.594ZM840.371 118.398L841.061 119.122C842.668 117.591 843.885 115.722 844.716 113.532L843.781 113.178L842.846 112.823C842.114 114.753 841.057 116.363 839.682 117.674L840.371 118.398ZM843.781 113.178L843.715 114.175L864.702 115.56L864.768 114.562L864.834 113.565L843.846 112.18L843.781 113.178ZM864.768 114.562L863.789 114.356C862.758 119.236 860.65 123.482 857.464 127.113L858.216 127.773L858.968 128.432C862.387 124.535 864.646 119.975 865.746 114.769L864.768 114.562ZM858.216 127.773L857.464 127.114C854.312 130.71 850.222 133.537 845.164 135.581L845.538 136.509L845.913 137.436C851.224 135.289 855.585 132.292 858.968 128.432L858.216 127.773ZM845.538 136.509L845.167 135.58C840.158 137.583 834.341 138.598 827.694 138.598V139.598V140.598C834.541 140.598 840.62 139.553 845.91 137.437L845.538 136.509Z" fill="black" mask="url(#path-1-outside-1_3_26)"/>
<path d="M189.608 47.9254H188.608V48.9254H189.608V47.9254ZM189.608 28.9091V27.9091H188.608V28.9091H189.608ZM279.203 28.9091H280.203V27.9091H279.203V28.9091ZM279.203 47.9254V48.9254H280.203V47.9254H279.203ZM245.805 47.9254V46.9254H244.805V47.9254H245.805ZM245.805 138V139H246.805V138H245.805ZM223.006 138H222.006V139H223.006V138ZM223.006 47.9254H224.006V46.9254H223.006V47.9254ZM189.608 47.9254H190.608V28.9091H189.608H188.608V47.9254H189.608ZM189.608 28.9091V29.9091H279.203V28.9091V27.9091H189.608V28.9091ZM279.203 28.9091H278.203V47.9254H279.203H280.203V28.9091H279.203ZM279.203 47.9254V46.9254H245.805V47.9254V48.9254H279.203V47.9254ZM245.805 47.9254H244.805V138H245.805H246.805V47.9254H245.805ZM245.805 138V137H223.006V138V139H245.805V138ZM223.006 138H224.006V47.9254H223.006H222.006V138H223.006ZM223.006 47.9254V46.9254H189.608V47.9254V48.9254H223.006V47.9254ZM285.036 138H284.036V139H285.036V138ZM285.036 56.1818V55.1818H284.036V56.1818H285.036ZM307.035 56.1818H308.035V55.1818H307.035V56.1818ZM307.035 70.4574H306.035V71.4574H307.035V70.4574ZM307.887 70.4574V71.4574H308.636L308.847 70.7392L307.887 70.4574ZM315.398 58.9517L315.992 59.7566L315.997 59.7527L315.398 58.9517ZM331.218 55.223L331.326 54.2288L331.326 54.2288L331.218 55.223ZM334.681 55.8089H335.681V55.0282L334.923 54.8388L334.681 55.8089ZM334.681 75.9439L334.393 76.9017L335.681 77.2879V75.9439H334.681ZM316.144 76.9027L316.624 77.7797L316.628 77.7774L316.144 76.9027ZM309.965 82.8686L309.106 82.3558L309.101 82.3647L309.965 82.8686ZM307.728 138V139H308.728V138H307.728ZM285.036 138H286.036V56.1818H285.036H284.036V138H285.036ZM285.036 56.1818V57.1818H307.035V56.1818V55.1818H285.036V56.1818ZM307.035 56.1818H306.035V70.4574H307.035H308.035V56.1818H307.035ZM307.035 70.4574V71.4574H307.887V70.4574V69.4574H307.035V70.4574ZM307.887 70.4574L308.847 70.7392C310.29 65.8251 312.687 62.1936 315.992 59.7566L315.398 58.9517L314.805 58.1469C311.078 60.8945 308.468 64.9334 306.928 70.1756L307.887 70.4574ZM315.398 58.9517L315.997 59.7527C319.332 57.26 323.168 56.0099 327.543 56.0099V55.0099V54.0099C322.756 54.0099 318.496 55.3878 314.799 58.1507L315.398 58.9517ZM327.543 55.0099V56.0099C328.638 56.0099 329.827 56.0784 331.111 56.2172L331.218 55.223L331.326 54.2288C329.982 54.0835 328.72 54.0099 327.543 54.0099V55.0099ZM331.218 55.223L331.111 56.2172C332.392 56.3557 333.499 56.5443 334.438 56.7791L334.681 55.8089L334.923 54.8388C333.874 54.5765 332.673 54.3744 331.326 54.2288L331.218 55.223ZM334.681 55.8089H333.681V75.9439H334.681H335.681V55.8089H334.681ZM334.681 75.9439L334.968 74.9861C333.828 74.6441 332.294 74.3516 330.391 74.1002L330.26 75.0916L330.129 76.083C331.989 76.3287 333.403 76.6045 334.393 76.9017L334.681 75.9439ZM330.26 75.0916L330.391 74.1002C328.474 73.8471 326.707 73.7188 325.093 73.7188V74.7188V75.7188C326.603 75.7188 328.281 75.839 330.129 76.083L330.26 75.0916ZM325.093 74.7188V73.7188C321.604 73.7188 318.451 74.481 315.659 76.028L316.144 76.9027L316.628 77.7774C319.092 76.4125 321.905 75.7188 325.093 75.7188V74.7188ZM316.144 76.9027L315.663 76.0257C312.914 77.5324 310.724 79.6473 309.106 82.3559L309.965 82.8686L310.823 83.3813C312.26 80.9762 314.189 79.1139 316.624 77.7797L316.144 76.9027ZM309.965 82.8686L309.101 82.3647C307.509 85.0933 306.728 88.2189 306.728 91.7109H307.728H308.728C308.728 88.5268 309.437 85.7576 310.829 83.3725L309.965 82.8686ZM307.728 91.7109H306.728V138H307.728H308.728V91.7109H307.728ZM307.728 138V137H285.036V138V139H307.728V138ZM353.444 136.828L353.032 137.739L353.039 137.742L353.444 136.828ZM343.749 128.678L342.91 129.222L342.916 129.231L343.749 128.678ZM342.737 103.696L341.858 103.221L341.858 103.221L342.737 103.696ZM349.556 96.2386L349.008 95.4018L349.008 95.4018L349.556 96.2386ZM359.357 91.9773L359.105 91.0094L359.103 91.01L359.357 91.9773ZM370.969 89.9531L371.065 90.9485L371.073 90.9477L370.969 89.9531ZM382.475 88.5682L382.619 89.5577L382.631 89.5558L382.475 88.5682ZM388.813 86.544L388.254 85.7154L388.254 85.7154L388.813 86.544ZM387.588 74.4524L386.927 75.2026L386.933 75.2081L387.588 74.4524ZM368.892 74.3991L369.484 75.2048L369.492 75.1991L368.892 74.3991ZM364.097 81.1108L364.017 82.1075L364.831 82.1737L365.058 81.3889L364.097 81.1108ZM343.11 79.4062L342.132 79.1967L341.894 80.3107L343.029 80.403L343.11 79.4062ZM349.396 66.5156L350.153 67.1689L350.156 67.1652L349.396 66.5156ZM361.487 58.0994L361.855 59.0293L361.859 59.0279L361.487 58.0994ZM391.796 56.7145L391.548 57.6832L391.55 57.6837L391.796 56.7145ZM402.929 61.6683L402.36 62.4905L402.364 62.4934L402.929 61.6683ZM410.653 70.2976L409.771 70.7696L409.773 70.7733L410.653 70.2976ZM413.476 138V139H414.476V138H413.476ZM391.956 138H390.956V139H391.956V138ZM391.956 126.654H392.956V125.654H391.956V126.654ZM391.317 126.654V125.654H390.707L390.428 126.197L391.317 126.654ZM386.044 133.419L386.7 134.173L386.707 134.167L386.044 133.419ZM378.107 137.947L378.433 138.892L378.442 138.889L378.107 137.947ZM382.741 121.913L383.198 122.803L383.208 122.798L382.741 121.913ZM388.76 116.48L387.918 115.941L387.918 115.941L388.76 116.48ZM390.944 100.074H391.944V98.2312L390.399 99.2354L390.944 100.074ZM388.014 101.352L388.297 102.312L388.305 102.309L388.314 102.306L388.014 101.352ZM383.913 102.364L384.096 103.347L384.107 103.345L384.118 103.343L383.913 102.364ZM379.332 103.163L379.47 104.154L379.481 104.152L379.493 104.15L379.332 103.163ZM375.177 103.749L375.036 102.759L375.032 102.76L375.177 103.749ZM368.199 105.614L368.593 106.533L368.593 106.533L368.199 105.614ZM363.565 109.076L364.355 109.689L364.362 109.679L363.565 109.076ZM365.269 121.487L364.68 122.295L364.687 122.3L364.694 122.305L365.269 121.487ZM367.4 139.545V138.545C362.296 138.545 357.786 137.66 353.849 135.914L353.444 136.828L353.039 137.742C357.27 139.619 362.064 140.545 367.4 140.545V139.545ZM353.444 136.828L353.856 135.917C349.936 134.144 346.854 131.549 344.583 128.125L343.749 128.678L342.916 129.231C345.404 132.981 348.784 135.819 353.032 137.739L353.444 136.828ZM343.749 128.678L344.589 128.135C342.373 124.711 341.234 120.402 341.234 115.148H340.234H339.234C339.234 120.691 340.438 125.401 342.91 129.222L343.749 128.678ZM340.234 115.148H341.234C341.234 110.721 342.047 107.078 343.617 104.171L342.737 103.696L341.858 103.221C340.09 106.493 339.234 110.484 339.234 115.148H340.234ZM342.737 103.696L343.617 104.171C345.209 101.225 347.369 98.8645 350.103 97.0754L349.556 96.2386L349.008 95.4018C345.989 97.377 343.604 99.9883 341.858 103.221L342.737 103.696ZM349.556 96.2386L350.103 97.0754C352.881 95.258 356.047 93.8788 359.61 92.9446L359.357 91.9773L359.103 91.01C355.351 91.9934 351.983 93.4551 349.008 95.4018L349.556 96.2386ZM359.357 91.9773L359.608 92.9452C363.247 92.0004 367.066 91.3344 371.065 90.9485L370.969 89.9531L370.873 88.9577C366.776 89.3531 362.853 90.0365 359.105 91.0094L359.357 91.9773ZM370.969 89.9531L371.073 90.9477C375.838 90.4499 379.688 89.9866 382.619 89.5576L382.475 88.5682L382.33 87.5787C379.437 88.002 375.617 88.462 370.865 88.9585L370.969 89.9531ZM382.475 88.5682L382.631 89.5558C385.584 89.0877 387.874 88.3856 389.373 87.3726L388.813 86.544L388.254 85.7154C387.125 86.4781 385.189 87.1254 382.318 87.5805L382.475 88.5682ZM388.813 86.544L389.373 87.3726C390.992 86.2785 391.784 84.6364 391.784 82.6023H390.784H389.784C389.784 84.0482 389.262 85.034 388.254 85.7154L388.813 86.544ZM390.784 82.6023H391.784V82.2827H390.784H389.784V82.6023H390.784ZM390.784 82.2827H391.784C391.784 78.6816 390.636 75.7707 388.243 73.6967L387.588 74.4524L386.933 75.2081C388.802 76.8273 389.784 79.1366 389.784 82.2827H390.784ZM387.588 74.4524L388.249 73.7022C385.912 71.6418 382.66 70.6825 378.639 70.6825V71.6825V72.6825C382.361 72.6825 385.074 73.5698 386.927 75.2026L387.588 74.4524ZM378.639 71.6825V70.6825C374.415 70.6825 370.931 71.6193 368.292 73.5991L368.892 74.3991L369.492 75.1991C371.681 73.5568 374.696 72.6825 378.639 72.6825V71.6825ZM368.892 74.3991L368.299 73.5935C365.72 75.4903 363.984 77.9076 363.137 80.8327L364.097 81.1108L365.058 81.3889C365.774 78.9162 367.234 76.8592 369.484 75.2048L368.892 74.3991ZM364.097 81.1108L364.178 80.1141L343.191 78.4095L343.11 79.4062L343.029 80.403L364.017 82.1075L364.097 81.1108ZM343.11 79.4062L344.088 79.6158C345.121 74.7976 347.144 70.656 350.153 67.1689L349.396 66.5156L348.639 65.8624C345.397 69.6196 343.231 74.0717 342.132 79.1967L343.11 79.4062ZM349.396 66.5156L350.156 67.1652C353.164 63.644 357.055 60.9287 361.855 59.0293L361.487 58.0994L361.119 57.1696C356.048 59.1764 351.877 62.0719 348.635 65.8661L349.396 66.5156ZM361.487 58.0994L361.859 59.0279C366.689 57.0957 372.312 56.1165 378.746 56.1165V55.1165V54.1165C372.112 54.1165 366.229 55.1259 361.116 57.1709L361.487 58.0994ZM378.746 55.1165V56.1165C383.213 56.1165 387.479 56.6398 391.548 57.6831L391.796 56.7145L392.045 55.7458C387.804 54.6585 383.37 54.1165 378.746 54.1165V55.1165ZM391.796 56.7145L391.55 57.6837C395.636 58.7226 399.236 60.3276 402.36 62.4905L402.929 61.6683L403.498 60.8461C400.16 58.5346 396.337 56.8371 392.043 55.7453L391.796 56.7145ZM402.929 61.6683L402.364 62.4934C405.498 64.6393 407.964 67.3943 409.771 70.7696L410.653 70.2976L411.534 69.8256C409.577 66.1696 406.895 63.1717 403.494 60.8432L402.929 61.6683ZM410.653 70.2976L409.773 70.7733C411.56 74.0774 412.476 78.0787 412.476 82.8153H413.476H414.476C414.476 77.8219 413.51 73.478 411.532 69.8219L410.653 70.2976ZM413.476 82.8153H412.476V138H413.476H414.476V82.8153H413.476ZM413.476 138V137H391.956V138V139H413.476V138ZM391.956 138H392.956V126.654H391.956H390.956V138H391.956ZM391.956 126.654V125.654H391.317V126.654V127.654H391.956V126.654ZM391.317 126.654L390.428 126.197C389.172 128.641 387.491 130.798 385.38 132.671L386.044 133.419L386.707 134.167C388.999 132.134 390.834 129.781 392.206 127.111L391.317 126.654ZM386.044 133.419L385.387 132.665C383.29 134.491 380.757 135.941 377.771 137.005L378.107 137.947L378.442 138.889C381.635 137.751 384.393 136.182 386.7 134.173L386.044 133.419ZM378.107 137.947L377.781 137.001C374.818 138.023 371.363 138.545 367.4 138.545V139.545V140.545C371.534 140.545 375.217 140.001 378.433 138.892L378.107 137.947ZM373.899 123.884V124.884C377.37 124.884 380.479 124.2 383.198 122.803L382.741 121.913L382.284 121.024C379.89 122.254 377.103 122.884 373.899 122.884V123.884ZM382.741 121.913L383.208 122.798C385.906 121.374 388.046 119.448 389.602 117.02L388.76 116.48L387.918 115.941C386.562 118.058 384.689 119.754 382.274 121.029L382.741 121.913ZM388.76 116.48L389.602 117.02C391.168 114.575 391.944 111.811 391.944 108.756H390.944H389.944C389.944 111.455 389.264 113.84 387.918 115.941L388.76 116.48ZM390.944 108.756H391.944V100.074H390.944H389.944V108.756H390.944ZM390.944 100.074L390.399 99.2354C389.794 99.6286 388.912 100.022 387.715 100.398L388.014 101.352L388.314 102.306C389.603 101.901 390.673 101.442 391.489 100.912L390.944 100.074ZM388.014 101.352L387.732 100.393C386.556 100.739 385.215 101.07 383.708 101.386L383.913 102.364L384.118 103.343C385.665 103.019 387.058 102.676 388.297 102.312L388.014 101.352ZM383.913 102.364L383.73 101.381C382.21 101.664 380.691 101.929 379.171 102.176L379.332 103.163L379.493 104.15C381.027 103.901 382.561 103.633 384.096 103.347L383.913 102.364ZM379.332 103.163L379.194 102.173C377.666 102.386 376.28 102.582 375.036 102.759L375.177 103.749L375.318 104.739C376.56 104.562 377.944 104.367 379.47 104.154L379.332 103.163ZM375.177 103.749L375.032 102.76C372.303 103.16 369.89 103.801 367.805 104.694L368.199 105.614L368.593 106.533C370.485 105.722 372.725 105.12 375.322 104.739L375.177 103.749ZM368.199 105.614L367.805 104.694C365.686 105.602 363.991 106.855 362.767 108.473L363.565 109.076L364.362 109.679C365.341 108.385 366.734 107.329 368.593 106.533L368.199 105.614ZM363.565 109.076L362.774 108.463C361.514 110.09 360.914 112.093 360.914 114.403H361.914H362.914C362.914 112.451 363.414 110.903 364.355 109.689L363.565 109.076ZM361.914 114.403H360.914C360.914 117.769 362.152 120.449 364.68 122.295L365.269 121.487L365.859 120.68C363.912 119.258 362.914 117.215 362.914 114.403H361.914ZM365.269 121.487L364.694 122.305C367.174 124.049 370.265 124.884 373.899 124.884V123.884V122.884C370.572 122.884 367.911 122.122 365.845 120.669L365.269 121.487ZM446.422 134.271L445.909 135.13L445.915 135.133L446.422 134.271ZM432.572 119.357L431.679 119.806L431.681 119.81L432.572 119.357ZM432.626 75.358L431.736 74.9008L431.735 74.9028L432.626 75.358ZM446.528 60.4964L447.037 61.3571L447.041 61.3548L446.528 60.4964ZM486.692 59.005L487.127 58.1047L487.127 58.1047L486.692 59.005ZM504.589 86.4375V87.4375H505.641L505.588 86.387L504.589 86.4375ZM483.176 86.4375L482.187 86.5837L482.313 87.4375H483.176V86.4375ZM478.382 76.5831L477.68 77.2952L477.69 77.3049L478.382 76.5831ZM459.099 75.6776L459.687 76.4868L459.689 76.4853L459.099 75.6776ZM452.974 110.408L452.041 110.77L452.044 110.778L452.974 110.408ZM459.099 118.771L459.689 117.963L459.689 117.963L459.099 118.771ZM475.292 120.049L474.839 119.158L474.833 119.161L475.292 120.049ZM480.459 115.415L479.629 114.857L479.627 114.86L480.459 115.415ZM483.176 108.011V107.011H482.313L482.187 107.864L483.176 108.011ZM504.589 108.011L505.588 108.067L505.648 107.011H504.589V108.011ZM499.476 124.523L498.634 123.983L498.633 123.985L499.476 124.523ZM486.958 135.603L486.511 134.709L486.511 134.709L486.958 135.603ZM468.048 139.598V138.598C459.811 138.598 452.784 136.854 446.929 133.409L446.422 134.271L445.915 135.133C452.133 138.791 459.524 140.598 468.048 140.598V139.598ZM446.422 134.271L446.935 133.413C441.098 129.925 436.612 125.095 433.464 118.903L432.572 119.357L431.681 119.81C434.996 126.331 439.742 131.444 445.909 135.13L446.422 134.271ZM432.572 119.357L433.466 118.907C430.35 112.711 428.778 105.554 428.778 97.4105H427.778H426.778C426.778 105.815 428.402 113.289 431.679 119.806L432.572 119.357ZM427.778 97.4105H428.778C428.778 89.1596 430.368 81.9699 433.516 75.8132L432.626 75.358L431.735 74.9028C428.42 81.388 426.778 88.9 426.778 97.4105H427.778ZM432.626 75.358L433.515 75.8151C436.698 69.6218 441.202 64.8097 447.037 61.3571L446.528 60.4964L446.019 59.6358C439.851 63.2854 435.087 68.3811 431.736 74.9008L432.626 75.358ZM446.528 60.4964L447.041 61.3548C452.861 57.8766 459.815 56.1165 467.942 56.1165V55.1165V54.1165C459.52 54.1165 452.198 55.943 446.015 59.6381L446.528 60.4964ZM467.942 55.1165V56.1165C474.958 56.1165 481.054 57.3903 486.256 59.9053L486.692 59.005L487.127 58.1047C481.605 55.435 475.201 54.1165 467.942 54.1165V55.1165ZM486.692 59.005L486.256 59.9053C491.467 62.4245 495.57 65.9491 498.59 70.4794L499.422 69.9247L500.254 69.37C497.025 64.5254 492.64 60.7701 487.127 58.1047L486.692 59.005ZM499.422 69.9247L498.59 70.4794C501.603 74.9991 503.279 80.3242 503.591 86.488L504.589 86.4375L505.588 86.387C505.26 79.9087 503.491 74.2254 500.254 69.37L499.422 69.9247ZM504.589 86.4375V85.4375H483.176V86.4375V87.4375H504.589V86.4375ZM483.176 86.4375L484.165 86.2913C483.534 82.0223 481.85 78.5231 479.074 75.8613L478.382 76.5831L477.69 77.3049C480.099 79.6147 481.61 82.6851 482.187 86.5837L483.176 86.4375ZM478.382 76.5831L479.084 75.8711C476.311 73.1361 472.687 71.8011 468.314 71.8011V72.8011V73.8011C472.251 73.8011 475.34 74.9874 477.68 77.2951L478.382 76.5831ZM468.314 72.8011V71.8011C464.605 71.8011 461.323 72.817 458.51 74.8698L459.099 75.6776L459.689 76.4853C462.131 74.7029 464.993 73.8011 468.314 73.8011V72.8011ZM459.099 75.6776L458.512 74.8683C455.737 76.8829 453.61 79.8026 452.099 83.561L453.027 83.9339L453.955 84.3069C455.356 80.821 457.277 78.2364 459.687 76.4868L459.099 75.6776ZM453.027 83.9339L452.099 83.561C450.583 87.3329 449.843 91.8526 449.843 97.0909H450.843H451.843C451.843 92.0309 452.559 87.7793 453.955 84.3069L453.027 83.9339ZM450.843 97.0909H449.843C449.843 102.396 450.564 106.965 452.041 110.77L452.974 110.408L453.906 110.046C452.542 106.535 451.843 102.226 451.843 97.0909H450.843ZM452.974 110.408L452.044 110.778C453.555 114.573 455.7 117.528 458.51 119.578L459.099 118.771L459.689 117.963C457.242 116.178 455.304 113.557 453.903 110.038L452.974 110.408ZM459.099 118.771L458.51 119.578C461.323 121.631 464.605 122.647 468.314 122.647V121.647V120.647C464.993 120.647 462.131 119.745 459.689 117.963L459.099 118.771ZM468.314 121.647V122.647C471.048 122.647 473.534 122.084 475.752 120.937L475.292 120.049L474.833 119.161C472.931 120.144 470.766 120.647 468.314 120.647V121.647ZM475.292 120.049L475.746 120.94C477.999 119.794 479.85 118.131 481.291 115.969L480.459 115.415L479.627 114.86C478.37 116.747 476.776 118.173 474.839 119.158L475.292 120.049ZM480.459 115.415L481.289 115.973C482.77 113.77 483.721 111.156 484.165 108.157L483.176 108.011L482.187 107.864C481.779 110.618 480.918 112.94 479.629 114.857L480.459 115.415ZM483.176 108.011V109.011H504.589V108.011V107.011H483.176V108.011ZM504.589 108.011L503.591 107.954C503.245 114.051 501.585 119.385 498.634 123.983L499.476 124.523L500.317 125.064C503.474 120.145 505.224 114.47 505.588 108.067L504.589 108.011ZM499.476 124.523L498.633 123.985C495.718 128.546 491.686 132.121 486.511 134.709L486.958 135.603L487.405 136.497C492.883 133.759 497.196 129.947 500.318 125.062L499.476 124.523ZM486.958 135.603L486.511 134.709C481.35 137.289 475.207 138.598 468.048 138.598V139.598V140.598C475.449 140.598 481.912 139.244 487.405 136.497L486.958 135.603ZM539.679 114.456L538.679 114.454L538.674 117.122L540.431 115.115L539.679 114.456ZM539.732 87.2365V86.2365H538.734L538.732 87.2345L539.732 87.2365ZM543.035 87.2365V88.2365H543.499L543.799 87.8814L543.035 87.2365ZM569.242 56.1818V55.1818H568.778L568.478 55.5369L569.242 56.1818ZM595.29 56.1818L596.049 56.8322L597.462 55.1818H595.29V56.1818ZM560.08 97.304V98.304H560.541L560.84 97.9544L560.08 97.304ZM554.7 97.304V96.304H554.247L553.948 96.6451L554.7 97.304ZM519.118 138H518.118V139H519.118V138ZM519.118 28.9091V27.9091H518.118V28.9091H519.118ZM541.81 28.9091H542.81V27.9091H541.81V28.9091ZM541.81 138V139H542.81V138H541.81ZM570.254 138L569.426 138.56L569.723 139H570.254V138ZM546.178 102.364L545.45 101.678L544.901 102.261L545.349 102.924L546.178 102.364ZM561.305 86.331L562.129 85.7644L561.428 84.7441L560.578 85.6447L561.305 86.331ZM596.835 138V139H598.736L597.659 137.433L596.835 138ZM539.679 114.456L540.679 114.458L540.732 87.2385L539.732 87.2365L538.732 87.2345L538.679 114.454L539.679 114.456ZM539.732 87.2365V88.2365H543.035V87.2365V86.2365H539.732V87.2365ZM543.035 87.2365L543.799 87.8814L570.006 56.8268L569.242 56.1818L568.478 55.5369L542.271 86.5916L543.035 87.2365ZM569.242 56.1818V57.1818H595.29V56.1818V55.1818H569.242V56.1818ZM595.29 56.1818L594.53 55.5314L559.321 96.6536L560.08 97.304L560.84 97.9544L596.049 56.8322L595.29 56.1818ZM560.08 97.304V96.304H554.7V97.304V98.304H560.08V97.304ZM554.7 97.304L553.948 96.6451L538.927 113.797L539.679 114.456L540.431 115.115L555.453 97.9628L554.7 97.304ZM519.118 138H520.118V28.9091H519.118H518.118V138H519.118ZM519.118 28.9091V29.9091H541.81V28.9091V27.9091H519.118V28.9091ZM541.81 28.9091H540.81V138H541.81H542.81V28.9091H541.81ZM541.81 138V137H519.118V138V139H541.81V138ZM570.254 138L571.083 137.44L547.006 101.805L546.178 102.364L545.349 102.924L569.426 138.56L570.254 138ZM546.178 102.364L546.905 103.051L562.033 87.0172L561.305 86.331L560.578 85.6447L545.45 101.678L546.178 102.364ZM561.305 86.331L560.481 86.8976L596.011 138.567L596.835 138L597.659 137.433L562.129 85.7644L561.305 86.331ZM596.835 138V137H570.254V138V139H596.835V138ZM606.423 138H605.423V139H606.423V138ZM606.423 56.1818V55.1818H605.423V56.1818H606.423ZM629.114 56.1818H630.114V55.1818H629.114V56.1818ZM629.114 138V139H630.114V138H629.114ZM609.139 42.2791L608.448 43.0022L608.454 43.0075L608.46 43.0127L609.139 42.2791ZM609.139 26.0859L609.824 26.8145L609.825 26.8141L609.139 26.0859ZM626.451 26.0859L625.76 26.809L625.766 26.8143L625.771 26.8195L626.451 26.0859ZM626.451 42.2791L627.136 43.0076L627.136 43.0073L626.451 42.2791ZM606.423 138H607.423V56.1818H606.423H605.423V138H606.423ZM606.423 56.1818V57.1818H629.114V56.1818V55.1818H606.423V56.1818ZM629.114 56.1818H628.114V138H629.114H630.114V56.1818H629.114ZM629.114 138V137H606.423V138V139H629.114V138ZM617.822 45.6349V44.6349C614.693 44.6349 612.044 43.6068 609.819 41.5456L609.139 42.2791L608.46 43.0127C611.064 45.4258 614.203 46.6349 617.822 46.6349V45.6349ZM609.139 42.2791L609.83 41.556C607.639 39.4633 606.57 37.0043 606.57 34.1293H605.57H604.57C604.57 37.5753 605.881 40.5495 608.448 43.0022L609.139 42.2791ZM605.57 34.1293H606.57C606.57 31.2938 607.636 28.8723 609.824 26.8145L609.139 26.0859L608.454 25.3574C605.884 27.774 604.57 30.7147 604.57 34.1293H605.57ZM609.139 26.0859L609.825 26.8141C612.05 24.7193 614.698 23.6768 617.822 23.6768V22.6768V21.6768C614.198 21.6768 611.058 22.9071 608.454 25.3577L609.139 26.0859ZM617.822 22.6768V23.6768C620.945 23.6768 623.572 24.719 625.76 26.809L626.451 26.0859L627.142 25.3628C624.571 22.9074 621.445 21.6768 617.822 21.6768V22.6768ZM626.451 26.0859L625.771 26.8195C627.994 28.8788 629.073 31.299 629.073 34.1293H630.073H631.073C631.073 30.7095 629.737 27.7675 627.131 25.3524L626.451 26.0859ZM630.073 34.1293H629.073C629.073 36.9991 627.991 39.4567 625.766 41.5509L626.451 42.2791L627.136 43.0073C629.741 40.5561 631.073 37.5804 631.073 34.1293H630.073ZM626.451 42.2791L625.766 41.5506C623.579 43.6072 620.95 44.6349 617.822 44.6349V45.6349V46.6349C621.441 46.6349 624.565 45.4255 627.136 43.0076L626.451 42.2791ZM691.29 56.1818H692.29V55.1818H691.29V56.1818ZM691.29 73.2273V74.2273H692.29V73.2273H691.29ZM640.793 73.2273H639.793V74.2273H640.793V73.2273ZM640.793 56.1818V55.1818H639.793V56.1818H640.793ZM652.352 138H651.352V139H652.352V138ZM655.814 35.5142L654.957 34.9997L654.954 35.0055L655.814 35.5142ZM665.403 26.7251L664.968 25.8245L664.968 25.8245L665.403 26.7251ZM688.733 24.5945L688.551 25.5777L688.554 25.5781L688.733 24.5945ZM695.232 26.0327L696.205 26.2637L696.423 25.3459L695.519 25.0748L695.232 26.0327ZM691.184 43.0781L690.879 44.0305L691.907 44.3596L692.157 43.3092L691.184 43.0781ZM687.881 42.2791L687.69 43.2607L687.695 43.2617L687.881 42.2791ZM676.961 44.25L677.72 44.9023L677.727 44.8936L676.961 44.25ZM674.991 138V139H675.991V138H674.991ZM691.29 56.1818H690.29V73.2273H691.29H692.29V56.1818H691.29ZM691.29 73.2273V72.2273H640.793V73.2273V74.2273H691.29V73.2273ZM640.793 73.2273H641.793V56.1818H640.793H639.793V73.2273H640.793ZM640.793 56.1818V57.1818H691.29V56.1818V55.1818H640.793V56.1818ZM652.352 138H653.352V50.2692H652.352H651.352V138H652.352ZM652.352 50.2692H653.352C653.352 44.4641 654.482 39.7347 656.675 36.0229L655.814 35.5142L654.954 35.0055C652.53 39.1062 651.352 44.2134 651.352 50.2692H652.352ZM655.814 35.5142L656.672 36.0287C658.917 32.2873 661.967 29.493 665.837 27.6258L665.403 26.7251L664.968 25.8245C660.742 27.8635 657.4 30.9286 654.957 34.9997L655.814 35.5142ZM665.403 26.7251L665.837 27.6258C669.731 25.747 674.178 24.7954 679.199 24.7954V23.7954V22.7954C673.921 22.7954 669.17 23.7971 664.968 25.8245L665.403 26.7251ZM679.199 23.7954V24.7954C682.629 24.7954 685.745 25.058 688.551 25.5777L688.733 24.5945L688.916 23.6112C685.969 23.0655 682.729 22.7954 679.199 22.7954V23.7954ZM688.733 24.5945L688.554 25.5781C691.457 26.1093 693.579 26.5808 694.945 26.9905L695.232 26.0327L695.519 25.0748C694.044 24.6322 691.833 24.1449 688.913 23.6108L688.733 24.5945ZM695.232 26.0327L694.259 25.8016L690.211 42.8471L691.184 43.0781L692.157 43.3092L696.205 26.2637L695.232 26.0327ZM691.184 43.0781L691.489 42.1257C690.549 41.8251 689.406 41.5498 688.067 41.2965L687.881 42.2791L687.695 43.2617C688.985 43.5056 690.043 43.763 690.879 44.0305L691.184 43.0781ZM687.881 42.2791L688.072 41.2975C686.729 41.0363 685.351 40.9062 683.939 40.9062V41.9062V42.9062C685.227 42.9062 686.477 43.0248 687.69 43.2607L687.881 42.2791ZM683.939 41.9062V40.9062C680.49 40.9062 677.793 41.7075 676.196 43.6064L676.961 44.25L677.727 44.8936C678.758 43.6675 680.713 42.9062 683.939 42.9062V41.9062ZM676.961 44.25L676.203 43.5978C674.683 45.3643 673.991 47.7758 673.991 50.6953H674.991H675.991C675.991 48.0751 676.612 46.1897 677.719 44.9022L676.961 44.25ZM674.991 50.6953H673.991V138H674.991H675.991V50.6953H674.991ZM674.991 138V137H652.352V138V139H674.991V138ZM711.066 167.989L711.246 167.006L711.235 167.004L711.066 167.989ZM704.887 166.338L703.929 166.049L703.668 166.916L704.505 167.262L704.887 166.338ZM710 149.399L710.294 148.443L709.333 148.149L709.043 149.11L710 149.399ZM717.191 150.731L717.158 151.73L717.159 151.73L717.191 150.731ZM722.784 149.239L722.23 148.407L722.221 148.413L722.784 149.239ZM726.673 143.806L727.605 144.169L727.606 144.165L726.673 143.806ZM728.005 140.344L728.938 140.703L729.07 140.361L728.949 140.014L728.005 140.344ZM698.654 56.1818V55.1818H697.247L697.71 56.5111L698.654 56.1818ZM722.518 56.1818L723.481 55.9105L723.275 55.1818H722.518V56.1818ZM739.457 116.267L738.495 116.538L738.7 117.267H739.457V116.267ZM740.309 116.267V117.267H741.064L741.271 116.541L740.309 116.267ZM757.408 56.1818V55.1818H756.653L756.446 55.9081L757.408 56.1818ZM781.431 56.1818L782.375 56.5128L782.842 55.1818H781.431V56.1818ZM749.631 146.842L748.687 146.511L748.686 146.515L749.631 146.842ZM743.399 158.348L742.62 157.721L742.612 157.731L743.399 158.348ZM733.544 165.965L733.137 165.052L733.13 165.055L733.544 165.965ZM719.162 168.682V167.682C716.339 167.682 713.701 167.455 711.246 167.006L711.066 167.989L710.886 168.973C713.473 169.447 716.233 169.682 719.162 169.682V168.682ZM711.066 167.989L711.235 167.004C708.794 166.585 706.811 166.051 705.268 165.414L704.887 166.338L704.505 167.262C706.229 167.974 708.366 168.541 710.897 168.975L711.066 167.989ZM704.887 166.338L705.844 166.627L710.958 149.688L710 149.399L709.043 149.11L703.929 166.049L704.887 166.338ZM710 149.399L709.707 150.355C712.431 151.19 714.917 151.656 717.158 151.73L717.191 150.731L717.225 149.731C715.204 149.664 712.897 149.241 710.294 148.443L710 149.399ZM717.191 150.731L717.159 151.73C719.505 151.807 721.585 151.267 723.348 150.066L722.784 149.239L722.221 148.413C720.859 149.342 719.211 149.796 717.224 149.731L717.191 150.731ZM722.784 149.239L723.339 150.071C725.167 148.853 726.567 146.838 727.605 144.169L726.673 143.806L725.741 143.444C724.79 145.888 723.598 147.495 722.23 148.407L722.784 149.239ZM726.673 143.806L727.606 144.165L728.938 140.703L728.005 140.344L727.071 139.985L725.74 143.447L726.673 143.806ZM728.005 140.344L728.949 140.014L699.599 55.8525L698.654 56.1818L697.71 56.5111L727.06 140.673L728.005 140.344ZM698.654 56.1818V57.1818H722.518V56.1818V55.1818H698.654V56.1818ZM722.518 56.1818L721.556 56.4532L738.495 116.538L739.457 116.267L740.42 115.996L723.481 55.9105L722.518 56.1818ZM739.457 116.267V117.267H740.309V116.267V115.267H739.457V116.267ZM740.309 116.267L741.271 116.541L758.37 56.4555L757.408 56.1818L756.446 55.9081L739.347 115.993L740.309 116.267ZM757.408 56.1818V57.1818H781.431V56.1818V55.1818H757.408V56.1818ZM781.431 56.1818L780.488 55.8508L748.687 146.511L749.631 146.842L750.575 147.173L782.375 56.5128L781.431 56.1818ZM749.631 146.842L748.686 146.515C747.193 150.822 745.168 154.553 742.62 157.721L743.399 158.348L744.178 158.975C746.885 155.609 749.015 151.67 750.576 147.17L749.631 146.842ZM743.399 158.348L742.612 157.731C740.124 160.9 736.971 163.34 733.137 165.052L733.544 165.965L733.952 166.878C738.072 165.039 741.489 162.401 744.185 158.965L743.399 158.348ZM733.544 165.965L733.13 165.055C729.314 166.793 724.669 167.682 719.162 167.682V168.682V169.682C724.877 169.682 729.82 168.76 733.959 166.875L733.544 165.965ZM805.961 134.484L805.465 135.353L805.471 135.356L805.961 134.484ZM792.005 119.889L791.117 120.348L791.118 120.35L792.005 119.889ZM792.005 75.3047L791.116 74.8476L791.116 74.8476L792.005 75.3047ZM805.801 60.4432L805.29 59.5839L805.287 59.5852L805.801 60.4432ZM841.863 57.7266L841.513 58.6632L841.521 58.6664L841.863 57.7266ZM854.114 65.4503L853.411 66.161L853.414 66.1646L854.114 65.4503ZM862.317 78.4474L861.381 78.7979L861.382 78.8L862.317 78.4474ZM865.247 102.897V103.897H866.247V102.897H865.247ZM796.16 102.897H795.16V103.897H796.16V102.897ZM796.16 88.8345V87.8345H795.16V88.8345H796.16ZM843.887 88.8345V89.8345H844.887V88.8345H843.887ZM841.756 80.152L840.885 80.6428L840.885 80.6428L841.756 80.152ZM835.844 74.2393L835.338 75.1022L835.346 75.1065L835.353 75.1106L835.844 74.2393ZM817.999 74.4524L818.51 75.312L818.514 75.3099L817.999 74.4524ZM811.82 80.7912L812.69 81.2848L812.693 81.2798L811.82 80.7912ZM809.53 89.5803L808.53 89.5693V89.5803H809.53ZM811.767 113.444L810.875 113.895L810.879 113.904L811.767 113.444ZM834.991 121.594L834.67 120.647L834.67 120.647L834.991 121.594ZM840.371 118.398L839.682 117.674L839.682 117.674L840.371 118.398ZM843.781 113.178L843.846 112.18L843.108 112.131L842.846 112.823L843.781 113.178ZM864.768 114.562L865.746 114.769L865.985 113.641L864.834 113.565L864.768 114.562ZM858.216 127.773L857.464 127.113L857.464 127.114L858.216 127.773ZM845.538 136.509L845.91 137.437L845.913 137.436L845.538 136.509ZM827.694 139.598V138.598C819.414 138.598 812.345 136.922 806.45 133.612L805.961 134.484L805.471 135.356C811.722 138.865 819.142 140.598 827.694 140.598V139.598ZM805.961 134.484L806.457 133.616C800.59 130.268 796.072 125.546 792.892 119.428L792.005 119.889L791.118 120.35C794.472 126.803 799.258 131.811 805.465 135.353L805.961 134.484ZM792.005 119.889L792.893 119.43C789.714 113.278 788.104 105.967 788.104 97.4638H787.104H786.104C786.104 106.219 787.762 113.858 791.117 120.348L792.005 119.889ZM787.104 97.4638H788.104C788.104 89.1784 789.712 81.9538 792.894 75.7618L792.005 75.3047L791.116 74.8476C787.764 81.3686 786.104 88.9167 786.104 97.4638H787.104ZM792.005 75.3047L792.894 75.7618C796.079 69.5654 800.55 64.753 806.315 61.3011L805.801 60.4432L805.287 59.5852C799.191 63.2357 794.465 68.3309 791.116 74.8476L792.005 75.3047ZM805.801 60.4432L806.313 61.3025C812.101 57.857 818.914 56.1165 826.788 56.1165V55.1165V54.1165C818.611 54.1165 811.433 55.9271 805.29 59.5839L805.801 60.4432ZM826.788 55.1165V56.1165C832.077 56.1165 836.982 56.9685 841.513 58.6632L841.863 57.7266L842.213 56.7899C837.44 55.0045 832.295 54.1165 826.788 54.1165V55.1165ZM841.863 57.7266L841.521 58.6664C846.076 60.3225 850.035 62.8199 853.411 66.161L854.114 65.4503L854.818 64.7396C851.233 61.1914 847.025 58.5397 842.205 56.7868L841.863 57.7266ZM854.114 65.4503L853.414 66.1646C856.812 69.4939 859.472 73.6966 861.381 78.7979L862.317 78.4474L863.254 78.097C861.256 72.7579 858.447 68.2959 854.814 64.736L854.114 65.4503ZM862.317 78.4474L861.382 78.8C863.283 83.8472 864.247 89.7953 864.247 96.6648H865.247H866.247C866.247 89.6137 865.258 83.417 863.253 78.0949L862.317 78.4474ZM865.247 96.6648H864.247V102.897H865.247H866.247V96.6648H865.247ZM865.247 102.897V101.897H796.16V102.897V103.897H865.247V102.897ZM796.16 102.897H797.16V88.8345H796.16H795.16V102.897H796.16ZM796.16 88.8345V89.8345H843.887V88.8345V87.8345H796.16V88.8345ZM843.887 88.8345H844.887C844.887 85.4181 844.143 82.3508 842.628 79.6611L841.756 80.152L840.885 80.6428C842.211 82.9958 842.887 85.7169 842.887 88.8345H843.887ZM841.756 80.152L842.628 79.6611C841.118 76.9807 839.015 74.8782 836.335 73.3681L835.844 74.2393L835.353 75.1106C837.715 76.4414 839.554 78.2807 840.885 80.6428L841.756 80.152ZM835.844 74.2393L836.349 73.3765C833.689 71.8182 830.615 71.0554 827.161 71.0554V72.0554V73.0554C830.313 73.0554 833.027 73.7485 835.338 75.1022L835.844 74.2393ZM827.161 72.0554V71.0554C823.556 71.0554 820.32 71.8937 817.485 73.5949L817.999 74.4524L818.514 75.3099C821.005 73.8151 823.878 73.0554 827.161 73.0554V72.0554ZM817.999 74.4524L817.488 73.5929C814.71 75.245 812.525 77.4857 810.948 80.3026L811.82 80.7912L812.693 81.2798C814.098 78.7699 816.033 76.7848 818.51 75.3119L817.999 74.4524ZM811.82 80.7912L810.951 80.2976C809.37 83.0829 808.567 86.1806 808.53 89.5693L809.53 89.5803L810.53 89.5912C810.564 86.5169 811.288 83.7552 812.69 81.2848L811.82 80.7912ZM809.53 89.5803H808.53V102.95H809.53H810.53V89.5803H809.53ZM809.53 102.95H808.53C808.53 107.121 809.298 110.78 810.875 113.895L811.767 113.444L812.659 112.992C811.253 110.213 810.53 106.877 810.53 102.95H809.53ZM811.767 113.444L810.879 113.904C812.491 117.014 814.771 119.431 817.713 121.128L818.212 120.262L818.712 119.396C816.114 117.897 814.098 115.768 812.655 112.984L811.767 113.444ZM818.212 120.262L817.713 121.128C820.661 122.829 824.125 123.659 828.067 123.659V122.659V121.659C824.409 121.659 821.304 120.891 818.712 119.396L818.212 120.262ZM828.067 122.659V123.659C830.682 123.659 833.101 123.291 835.313 122.541L834.991 121.594L834.67 120.647C832.692 121.317 830.494 121.659 828.067 121.659V122.659ZM834.991 121.594L835.313 122.541C837.535 121.787 839.457 120.65 841.061 119.122L840.371 118.398L839.682 117.674C838.303 118.987 836.638 119.98 834.67 120.647L834.991 121.594ZM840.371 118.398L841.061 119.122C842.668 117.591 843.885 115.722 844.716 113.532L843.781 113.178L842.846 112.823C842.114 114.753 841.057 116.363 839.682 117.674L840.371 118.398ZM843.781 113.178L843.715 114.175L864.702 115.56L864.768 114.562L864.834 113.565L843.846 112.18L843.781 113.178ZM864.768 114.562L863.789 114.356C862.758 119.236 860.65 123.482 857.464 127.113L858.216 127.773L858.968 128.432C862.387 124.535 864.646 119.975 865.746 114.769L864.768 114.562ZM858.216 127.773L857.464 127.114C854.312 130.71 850.222 133.537 845.164 135.581L845.538 136.509L845.913 137.436C851.224 135.289 855.585 132.292 858.968 128.432L858.216 127.773ZM845.538 136.509L845.167 135.58C840.158 137.583 834.341 138.598 827.694 138.598V139.598V140.598C834.541 140.598 840.62 139.553 845.91 137.437L845.538 136.509Z" fill="black" fill-opacity="0.2" mask="url(#path-1-outside-1_3_26)"/>
<path d="M5.89956 126.408C15.4745 118.503 44.3652 93.1048 44.3652 93.1048L76.3484 123.636L149.721 58.2986C149.721 58.2986 150.348 130.353 149.721 141.956C149.095 153.558 143.428 155.664 132.789 156H18.6533C-3.03729 156 -3.67536 134.314 5.89956 126.408Z" fill="#F97316"/>
<path d="M142.662 34.6629C129.479 46.2172 72.3503 97.2995 72.3503 97.2995L39.0777 65.069L0.155029 100.948V16.4193C1.66372 8.26551 4.66122 4.62933 17.1052 1.21624L135.129 0C148.259 0.0361415 155.846 23.1086 142.662 34.6629Z" fill="#F97316"/>
</svg>
