<svg width="32" height="32" viewBox="0 0 32 32" fill="none" xmlns="http://www.w3.org/2000/svg">
  <rect width="32" height="32" rx="4" fill="white"/>
  <path d="M4.62065 21C6.12 19.5 10.7479 15.6178 10.7479 15.6178L15.798 20.721L27.266 10C27.266 10 27.756 21.244 27.266 23.783C26.775 26.322 25.336 26.054 23.004 27.331H6.6097C2.37891 27.331 1.87866 22.5 4.62065 21Z" fill="#F97316"/>
  <path d="M26.736 6.5C24.411 8.5 14.6664 18 14.6664 18L8.6065 11.5L3.12134 17V3.5C3.30298 2.2959 3.6507 1.80625 5.3971 1L24.836 1C27.12 1.02972 29.062 4.5 26.736 6.5Z" fill="#F97316"/>
</svg>
